<?xml version="1.0" encoding="utf-8"?>
<!-- Generator: Adobe Illustrator 27.5.0, SVG Export Plug-In . SVG Version: 6.00 Build 0)  -->
<svg version="1.1" xmlns="http://www.w3.org/2000/svg" xmlns:xlink="http://www.w3.org/1999/xlink" x="0px" y="0px"
	 viewBox="0 0 600 500" style="enable-background:new 0 0 600 500;" xml:space="preserve">
<g id="BACKGROUND">
	<path style="fill:#ABD1FF;" d="M107.415,347.398c-53.876-66.563-40.363-181.924,27.012-245.822
		c81.082-76.896,200.836-41.956,218.131-36.91c88.44,25.804,171.982,103.305,179.933,198.141
		c4.49,53.564-13.824,128.292-59.616,146.663c-33.578,13.471-52.458-15.185-126.624-14.641
		c-55.45,0.407-61.84,16.549-106.082,14.103C231.402,408.447,152.417,402.997,107.415,347.398z"/>
</g>
<g id="OBJECTS">
	<g>
		<g>
			<path style="fill:#223242;" d="M376.087,380.243l-0.72-0.835c34.08-36.321,48.298-91.887,48.437-92.444l1.098,0.143
				C424.762,287.668,410.451,343.62,376.087,380.243z"/>
			<g>
				<path style="fill:#80BA91;" d="M423.238,288.277c0,0,1.992-35.354,11.382-59.371c3.24-8.286,7.036-15.281,10.509-20.826
					C445.128,208.08,446.745,252.226,423.238,288.277z"/>
				<path style="fill:#223242;" d="M445.128,208.08c0,0-8.86,16.632-9.202,37.678c-0.342,21.046,2.628,36.586-23.787,65.888
					C412.139,311.646,425.916,234.009,445.128,208.08z"/>
			</g>
		</g>
		<g>
			<path style="fill:#80BA91;" d="M393.047,364.3c-3.24-1.264,1.399-21.655,10.875-40.003
				c10.837-20.984,18.976-21.824,30.262-43.376c10.268-19.608,5.906-23.447,14.682-37.209
				c16.615-26.053,46.952-35.347,47.747-32.227c0.475,1.863-9.966,6.633-17.205,20.195c-8.299,15.551-2.039,23.271-7.443,38.687
				c-6.197,17.678-18.453,19.005-42.599,46.172C405.493,343.4,393.047,364.3,393.047,364.3z"/>
			<path style="fill:#223242;" d="M393.047,364.3c0,0,36.309-32.292,71.897-81.703C464.944,282.596,421.134,311.253,393.047,364.3z"
				/>
			<path style="fill:#223242;" d="M385.519,382.017c2.259-11.78,8.919-24.071,8.986-24.194
				c9.476-24.083,21.349-43.742,35.246-58.343c1.3-1.367,2.638-2.712,3.993-4.074c6.4-6.432,13.017-13.082,17.955-24.187
				c2.672-6.01,3.529-10.369,4.357-14.583c0.842-4.288,1.638-8.338,4.203-13.751c5.012-10.572,13.954-19.959,26.577-27.9
				l0.434,1.071c-12.381,7.788-21.135,16.96-26.018,27.26c-2.482,5.236-3.259,9.195-4.083,13.386
				c-0.844,4.298-1.717,8.743-4.461,14.913c-5.057,11.371-11.777,18.126-18.276,24.657c-1.347,1.354-2.677,2.691-3.971,4.049
				c-13.756,14.455-25.52,33.943-34.963,57.924c-0.107,0.21-6.651,12.292-8.865,23.831L385.519,382.017z"/>
		</g>
		<path style="fill:#223242;" d="M388.225,373.343c0,0,50.904-38.761,88.866-59.212l-32.773,2.615l-36.535,29.039L388.225,373.343z"
			/>
		<path style="fill:#80BA91;" d="M388.225,373.343c8.659-17.894,17.754-28.563,24.41-34.977
			c9.626-9.276,15.086-10.553,27.902-23.265c11.427-11.334,13.034-16.218,18.858-21.538c9.09-8.303,24.765-14.3,53.531-2.494
			c0,0-4.479-1.602-9.59,0.906c-5.112,2.507-20.679,23.576-37.096,26.453c-16.418,2.877-32.74,4.988-50.989,23.653
			C397.003,360.746,388.225,373.343,388.225,373.343z"/>
		<path style="fill:#223242;" d="M383.552,382.741l-0.942-0.531l5.144-9.132c15.764-27.987,36.355-41.304,56.268-54.183
			c7.782-5.033,15.133-9.787,21.917-15.27c23.886-19.305,36.746-14.77,37.282-14.568l-0.52,1.202
			c-0.126-0.047-12.901-4.483-36.193,14.342c-6.842,5.529-14.223,10.303-22.037,15.357c-19.763,12.781-40.198,25.998-55.774,53.651
			L383.552,382.741z"/>
	</g>
	<g>
		<g>
			<path style="fill:#223242;" d="M236.598,392.174l0.873-0.673c-26.072-42.437-28.813-99.728-28.837-100.302l-1.104-0.081
				C207.554,291.695,210.309,349.382,236.598,392.174z"/>
			<g>
				<path style="fill:#80BA91;" d="M208.924,292.599c0,0,5.165-35.032,0.802-60.446c-1.506-8.769-3.816-16.384-6.102-22.515
					C203.625,209.637,193.155,252.554,208.924,292.599z"/>
				<path style="fill:#223242;" d="M203.625,209.637c0,0,5.33,18.075,1.429,38.759c-3.901,20.684-9.939,35.308,10.038,69.327
					C215.092,317.723,217.225,238.902,203.625,209.637z"/>
			</g>
		</g>
		<g>
			<path style="fill:#80BA91;" d="M223.194,373.142c3.428-0.585,2.989-21.493-2.6-41.373c-6.391-22.736-14.194-25.197-20.911-48.579
				c-6.111-21.273-1.065-24.156-6.891-39.402c-11.03-28.864-38.876-44.074-40.283-41.178c-0.84,1.729,8.427,8.503,12.788,23.244
				c4.999,16.903-2.687,23.205-0.496,39.394c2.512,18.564,14.25,22.331,32.433,53.802
				C215.21,350.165,223.194,373.142,223.194,373.142z"/>
			<path style="fill:#223242;" d="M223.194,373.142c0,0-29.065-38.939-53.979-94.503
				C169.215,278.639,206.36,315.528,223.194,373.142z"/>
			<path style="fill:#223242;" d="M227.002,392.013c0.158-11.994-3.891-25.374-3.932-25.507
				c-4.435-25.497-12.107-47.144-22.781-64.244c-0.998-1.6-2.038-3.187-3.091-4.794c-4.975-7.589-10.118-15.435-12.719-27.306
				c-1.408-6.425-1.369-10.867-1.332-15.162c0.039-4.369,0.074-8.497-1.349-14.316c-2.781-11.365-9.65-22.359-20.417-32.679
				l-0.641,0.962c10.56,10.121,17.288,20.867,19.998,31.939c1.377,5.629,1.342,9.663,1.305,13.934
				c-0.038,4.38-0.078,8.909,1.367,15.506c2.665,12.156,7.888,20.125,12.939,27.832c1.047,1.598,2.081,3.175,3.074,4.765
				c10.565,16.928,18.165,38.385,22.588,63.776c0.063,0.228,4.041,13.379,3.887,25.128L227.002,392.013z"/>
		</g>
		<path style="fill:#223242;" d="M226.097,382.972c0,0-42.06-48.214-75.129-75.888l31.576,9.158l29.942,35.799L226.097,382.972z"/>
		<path style="fill:#80BA91;" d="M226.097,382.972c-4.88-19.271-11.642-31.552-16.87-39.175
			c-7.562-11.024-12.653-13.374-22.648-28.405c-8.912-13.402-9.503-18.51-14.137-24.893c-7.232-9.963-21.38-18.992-51.933-13.218
			c0,0,4.709-0.667,9.212,2.817c4.502,3.485,15.51,27.256,31.012,33.379c15.503,6.123,31.066,11.476,45.184,33.432
			C220.035,368.865,226.097,382.972,226.097,382.972z"/>
		<path style="fill:#223242;" d="M228.783,393.117l1.03-0.33l-3.2-9.98c-9.808-30.587-27.297-47.777-44.21-64.401
			c-6.61-6.497-12.853-12.633-18.395-19.369c-19.511-23.718-33.021-21.865-33.586-21.774l0.268,1.282
			c0.133-0.021,13.54-1.794,32.565,21.333c5.589,6.794,11.858,12.956,18.494,19.479c16.786,16.498,34.142,33.557,43.833,63.78
			L228.783,393.117z"/>
	</g>
	<g>
		<ellipse style="opacity:0.52;fill:#BBC5D4;" cx="311.829" cy="438.43" rx="93.493" ry="5.668"/>
		<g>
			<path style="fill:#FFFFFF;" d="M420.488,158.05c-8.969-17.863-24.56-25.719-39.693-29.751
				c-13.729-3.658-27.472-0.083-39.637,8.989c-8.334,6.215-17.62,9.368-26.923,9.474c-0.803-0.009-4.01-0.009-4.813,0
				c-9.303-0.106-18.589-3.259-26.923-9.474c-12.164-9.072-25.907-12.647-39.637-8.989c-15.133,4.032-30.723,11.888-39.693,29.751
				c-15.79,31.448-12.567,77.978,3.117,108.186c3.301,6.358,3.723,14.625,3.328,22.358c-0.571,11.179-0.731,21.667-0.395,32.855
				c0.414,13.807,1.391,27.629,3.431,41.186c3.498,23.253,10.382,46.52,23.795,62.677c3.345,4.029,7.026,7.542,10.949,10.481
				c10.993,8.234,23.095,0.539,28.146-14.18c3.197-9.317,3.739-19.813,4.418-30.031c1.496-22.536,7.339-43.576,26.302-46.262
				c1.056-0.149,2.111-0.206,3.161-0.18c0.799-0.02,1.603,0.056,2.407,0.137c0.803-0.081,1.607-0.157,2.406-0.137
				c1.05-0.026,2.105,0.031,3.161,0.18c18.963,2.686,24.806,23.726,26.302,46.262c0.678,10.218,1.22,20.715,4.417,30.031
				c5.051,14.72,17.153,22.415,28.146,14.18c3.923-2.939,7.605-6.451,10.949-10.481c13.412-16.158,20.297-39.424,23.795-62.677
				c2.04-13.557,3.017-27.379,3.431-41.186c0.336-11.188,0.176-21.675-0.395-32.855c-0.395-7.733,0.027-16,3.328-22.358
				C433.055,236.028,436.279,189.498,420.488,158.05z"/>
			<path style="fill:#D9E7FC;" d="M401.041,388.895c-15.221,8.234-31.976,0.539-38.97-14.18c-4.426-9.317-5.176-19.813-6.116-30.031
				c-2.072-22.536-10.162-43.576-36.417-46.262c-1.461-0.149-2.922-0.206-4.376-0.18c-1.107-0.02-2.219,0.057-3.332,0.137
				c-1.112-0.081-2.225-0.157-3.332-0.137c-1.453-0.026-2.915,0.031-4.376,0.18c-26.255,2.685-34.345,23.726-36.417,46.262
				c-0.939,10.218-1.69,20.715-6.116,30.031c-6.994,14.72-23.749,22.414-38.97,14.18c-1.743-0.943-3.438-1.966-5.108-3.026
				c4.069,14.88,10.048,28.735,18.937,39.443c3.345,4.029,7.026,7.542,10.949,10.481c10.993,8.234,23.095,0.539,28.146-14.181
				c3.197-9.316,3.739-19.813,4.417-30.031c1.496-22.535,7.34-43.576,26.302-46.261c1.055-0.149,2.111-0.206,3.161-0.18
				c0.799-0.02,1.603,0.056,2.406,0.137c0.803-0.081,1.607-0.157,2.407-0.137c1.05-0.026,2.105,0.031,3.161,0.18
				c18.963,2.685,24.806,23.726,26.302,46.261c0.678,10.218,1.22,20.715,4.417,30.031c5.051,14.72,17.153,22.415,28.146,14.181
				c3.923-2.939,7.605-6.452,10.949-10.481c8.89-10.709,14.868-24.563,18.937-39.443
				C404.478,386.929,402.784,387.952,401.041,388.895z"/>
			<path style="fill:#D9E7FC;" d="M311.829,174.711c26.546,0,49.082-19.978,57.221-47.752c-9.714,0.242-19.208,3.851-27.892,10.328
				c-8.334,6.216-17.62,9.368-26.923,9.474c-0.803-0.009-4.01-0.009-4.813,0c-9.303-0.106-18.589-3.259-26.923-9.474
				c-8.684-6.477-18.178-10.087-27.892-10.328C262.748,154.733,285.283,174.711,311.829,174.711z"/>
		</g>
	</g>
	<g>
		<path style="opacity:0.52;fill:#BBC5D4;" d="M173.111,453.895c0,2.22-14.14,4.02-31.583,4.02c-17.442,0-31.582-1.8-31.582-4.02
			c0-2.22,14.14-4.02,31.582-4.02C158.971,449.876,173.111,451.675,173.111,453.895z"/>
		<path style="fill:#FCC6BA;" d="M124.176,433.744l-10.741,0.151c0.893,4.047,1.855,8.188,2.9,12.43l7.398-0.104L124.176,433.744z"
			/>
		<path style="fill:#FCC6BA;" d="M150.01,431.929l-11.366,0.16l4.118,11.905l8.469-2.989
			C151.232,441.006,150.779,437.576,150.01,431.929z"/>
		<path style="fill:#223242;" d="M126.487,444.91l-10.673-0.032c0,0-2.378,2.058-3.416,11.168l22.31,0.068
			c0,0,0.623-5.383-5.233-7.472L126.487,444.91z"/>
		<path style="fill:#223242;" d="M141.755,442.111c0,0-0.662,7.088,0.274,9.972l24.588,0.246c0,0,1.349-6.293-14.407-10.187
			L141.755,442.111z"/>
		<path style="fill:#223242;" d="M118.568,445.225l-1.417-3.214c0,0,4.399-2.007,9.649-0.486l-0.012,3.894L118.568,445.225z"/>
		<path style="fill:#223242;" d="M147.726,442.246l-0.927-3.177c0,0,2.407-2.113,5.434-0.72l0.147,3.891L147.726,442.246z"/>
		<g>
			<polygon style="fill:#FCC6BA;" points="126.124,227.02 136.478,225.106 130.44,197.448 120.944,199.522 			"/>
		</g>
		<path style="fill:#223242;" d="M129.974,183.668c0,0,15.268-3.626,14.208,4.95c-1.061,8.576-3.902,11.281-3.902,11.281
			L129.974,183.668z"/>
		<g>
			<path style="fill:#FCC6BA;" d="M142.457,194.62c1.672,7.658-3.051,15.193-10.55,16.83c-7.498,1.637-14.932-3.244-16.604-10.902
				c-1.672-7.658,3.051-15.193,10.55-16.83C133.351,182.081,140.785,186.962,142.457,194.62z"/>
		</g>
		<path style="fill:#FCC6BA;" d="M141.864,192.617c0,0,4.985,15.773-1.709,24.219c-0.345,0.435-0.863,0.688-1.414,0.699
			c-3.343,0.064-18.123-1.556-22.341-14.63L141.864,192.617z"/>
		<path style="fill:#FFFFFF;" d="M130.951,205.003c0,0,11.58-4.987,12.828-2.025c0,0,0.99,14.788-4.855,14.797
			C128.843,217.791,130.951,205.003,130.951,205.003z"/>
		<path style="fill:none;stroke:#FFFFFF;stroke-width:0.75;stroke-linecap:round;stroke-miterlimit:10;" d="M127.17,200.28
			c0,0,2.808,4.532,6.482,6.284"/>
		<path style="fill:none;stroke:#FFFFFF;stroke-width:0.75;stroke-linecap:round;stroke-miterlimit:10;" d="M125.268,207.081
			c0,0,2.549,5.835,9.419,8.359"/>
		<path style="fill:#223242;" d="M139.448,188.456c0,0-4.786,11.67-12.41,12.611c0,0-3.654-2.94-4.767-0.245
			c-1.114,2.694,0.698,6.098,2.997,6.26c0,0-1.961,4.984-1.392,8.006c0,0-5.372-2.036-7.477-4.332
			c-2.751-3.002-4.412-10.452-3.2-17.412C114.594,185.331,132.994,175.488,139.448,188.456z"/>
		<path style="fill:#223242;" d="M119.228,189.234c-0.301-3.241-3.681-6.622-7.612-6.482c-2.961,0.105-5.279,2.174-6.335,4.337
			c-1.876,3.842-0.255,8.969,2.805,10.386C112.334,199.442,119.708,194.416,119.228,189.234z"/>
		<path style="fill:none;stroke:#223242;stroke-width:0.75;stroke-linecap:round;stroke-miterlimit:10;" d="M139.288,188.07
			c0,0,1.781,4.45-3.335,9.093"/>
		<path style="fill:none;stroke:#223242;stroke-width:0.75;stroke-linecap:round;stroke-miterlimit:10;" d="M118.199,188.556
			c0,0,1.267-6.519-6.078-7.106"/>
		<path style="fill:#223242;" d="M134.781,217.175c0,0-5.237-1.229-7.096-2.386c0,0,5.32,3.58,7.432,3.986L134.781,217.175z"/>
		<path style="fill:#FFFFFF;" d="M123.225,207.882c0.33,0.796,1.244,1.174,2.04,0.843c0.796-0.33,1.174-1.244,0.843-2.04
			c-0.33-0.796-1.244-1.173-2.04-0.843C123.272,206.173,122.895,207.086,123.225,207.882z"/>
		<path style="fill:#223242;" d="M160.703,288.682c-16.756,0-44.075,1.27-44.075,1.27c-0.691,3.247,0.404,2.371-1.321,5.947
			c-2.619,5.431-3.439,11.553-2.24,17.462c0.431,2.122,0.89,4.372,1.329,6.497c0,0,0.238,12.477,0,20.379
			c-0.238,7.903-2.839,22.091-4.571,29.502c-1.732,7.411-2.714,13.994-2.31,22.788c0.404,8.794,5.795,43.154,5.795,43.154
			s3.805,4.758,11.726,0c0,0,0.687-49.241,2.262-54.71c1.575-5.469,1.703-2.153,6.049-10.888c1.963-3.945,5.755-18.627,9.322-33.541
			c0.085,3.669,0.069,6.974-0.11,9.462c-0.876,12.151-5.571,28.45-6.039,33.785c-0.468,5.334,1.314,52.765,1.314,52.765
			s4.429,5.503,13.167,1.033c0,0,2.813-44.571,2.63-49.563s9.54-20.332,11.935-33.371
			C167.963,337.614,165.857,300.748,160.703,288.682z"/>
		<path style="fill:none;stroke:#6588FC;stroke-width:0.75;stroke-linecap:round;stroke-linejoin:round;stroke-miterlimit:10;" d="
			M122.838,289.684c0,0-3.788,8.873-1.894,20.006c1.894,11.133-1.672,47.551-6.039,58.645c-4.367,11.094-4.245,28.038,1.723,68.405"
			/>
		
			<line style="fill:none;stroke:#223242;stroke-width:0.75;stroke-linecap:round;stroke-linejoin:round;stroke-miterlimit:10;" x1="142.671" y1="336.543" x2="148.949" y2="322.511"/>
		<path style="fill:none;stroke:#6588FC;stroke-width:0.75;stroke-linecap:round;stroke-linejoin:round;stroke-miterlimit:10;" d="
			M141.304,434.803c0,0-1.793-48.863,0-54.651c1.793-5.788,7.644-28.7,3.74-48.913"/>
		<path style="fill:#FFFFFF;" d="M174.51,277.893c5.527-9.382,6.085-10.704,13.385-27.54l-5.839-2.781l-9.905,12.356
			c-1.192-1.964-8.819-13.51-10.796-21.648c-2.94-12.102-14.809-14.402-14.809-14.402c0.898,4.92,3.82,10.287,5.719,12.479
			c0,0-0.002-0.001-0.002-0.001l-1.596,4.773C153.586,244.005,163.917,291.625,174.51,277.893z"/>
		<g>
			<path style="fill:#FCC6BA;" d="M182.057,247.572l-9.905,12.356c-0.764-1.258-3.52-5.911-6.84-11.768
				c-5.454,1.781-6.618,5.601-8.503,9.798c4.662,13.371,11.13,28.451,17.7,19.935c5.527-9.382,5.768-9.769,13.979-29.483
				L182.057,247.572z"/>
		</g>
		<path style="fill:#FFFFFF;" d="M158.412,242.265c0,0-7.621-16.333-7.234-16.57c0,0-2.101-1.992-15.664-3.881l-0.858,3.442
			l-8.271-1.788c0,0-11.637,2.011-17.776,7.958c0,0-0.751,13.583,0.655,20.301l0.779,3.722c1.033,4.931,11.232,19.309,11.232,19.309
			l-4.647,15.194c0,0,29.274,5.2,44.075-1.27l-6.886-19.034L158.412,242.265z"/>
		<path style="fill:#FFFFFF;" d="M121.275,274.758c0,0-10.616,25.033-10.737,37.806c-0.121,12.773-2.13,50.676-2.13,50.676
			s31.18,10.401,58.145-3.447c0,0,5.726-60.961-13.571-90.92L121.275,274.758z"/>
		<path style="fill:none;stroke:#223242;stroke-width:0.75;stroke-linecap:round;stroke-linejoin:round;stroke-miterlimit:10;" d="
			M142.243,223.198c-0.856,3.629-2.31,5.234-2.31,5.234l-3.437-2.572l2.251,6.088c0,0,7.497,19.457,8.697,24.922
			c1.201,5.466,17.004,73.458,1.505,109.102"/>
		<path style="fill:#FFFFFF;" d="M124.779,220.207l10.405,5.921l-6.351,5.314l-7.558-5.444
			C121.275,225.998,121.113,222.484,124.779,220.207z"/>
		<path style="fill:#FFFFFF;" d="M142.215,222.923c0,0-3.107-3.076-6.936-3.314l-0.622,5.647"/>
		
			<polyline style="fill:none;stroke:#223242;stroke-width:0.75;stroke-linecap:round;stroke-linejoin:round;stroke-miterlimit:10;" points="
			121.275,225.998 128.833,231.441 133.743,226.458 141.581,239.467 		"/>
		<path style="fill:#223242;" d="M126.494,438.908l-13.076,1.193c-1.18,0.108-2.223-0.761-2.331-1.941l-0.371-4.062
			c-0.108-1.18,0.761-2.223,1.941-2.331l13.076-1.193c1.18-0.108,2.223,0.761,2.33,1.941l0.371,4.062
			C128.542,437.757,127.673,438.801,126.494,438.908z"/>
		<path style="fill:#223242;" d="M151.488,436.739h-13.13c-1.184,0-2.145-0.96-2.145-2.145v-4.079c0-1.184,0.96-2.145,2.145-2.145
			h13.13c1.184,0,2.145,0.96,2.145,2.145v4.079C153.633,435.779,152.673,436.739,151.488,436.739z"/>
		<g>
			<polygon style="fill:#BBC5D4;" points="222.808,194.702 220.18,192.618 195.861,221.961 199.786,225.072 			"/>
			<g>
				<path style="fill:#BBC5D4;" d="M203.717,222.484l-6.161-4.884c-0.894-0.708-2.192-0.558-2.901,0.335l-1.942,2.449l9.397,7.45
					l1.942-2.449C204.761,224.492,204.611,223.193,203.717,222.484z"/>
			</g>
			<path style="fill:#BBC5D4;" d="M202.44,227.176l-2.654-2.104l-3.924-3.111l-2.122-1.682c-0.757-0.6-1.857-0.473-2.456,0.284
				l-69.362,87.49c-1.878,2.369-2.05,5.543-0.686,8.039c0.455,0.833,1.081,1.59,1.871,2.217c0.591,0.468,1.231,0.83,1.899,1.089
				c2.904,1.125,6.32,0.295,8.357-2.274l69.362-87.49C203.324,228.876,203.197,227.777,202.44,227.176z"/>
			
				<line style="fill:none;stroke:#223242;stroke-width:0.75;stroke-linecap:round;stroke-linejoin:round;stroke-miterlimit:10;" x1="197.12" y1="223.878" x2="123.106" y2="318.309"/>
			<g>
				<path style="fill:#BBC5D4;" d="M130.718,319.161l-10.207-8.092l-0.501,0.632c-1.257,1.586-0.991,3.891,0.595,5.148l4.464,3.539
					c1.586,1.257,3.891,0.991,5.148-0.595L130.718,319.161z"/>
			</g>
			<path style="fill:#909AB5;" d="M256.24,190.005c-10.136,12.785-26.99,16.302-37.643,7.856
				c-10.654-8.446-11.073-25.658-0.937-38.443c10.136-12.785,26.99-16.302,37.643-7.856
				C265.956,160.008,266.376,177.22,256.24,190.005z"/>
			<g style="opacity:0.5;">
				<path style="fill:#FFFFFF;" d="M252.915,187.369c-8.389,10.581-22.337,13.492-31.154,6.502
					c-8.817-6.99-9.165-21.235-0.776-31.816c8.389-10.581,22.337-13.492,31.154-6.502
					C260.956,162.543,261.303,176.787,252.915,187.369z"/>
			</g>
			<g style="opacity:0.5;">
				<path style="fill:#FFFFFF;" d="M252.915,187.369c8.389-10.581,8.042-24.826-0.776-31.816c-8.817-6.99-22.766-4.079-31.154,6.502
					c-0.605,0.763-1.151,1.548-1.664,2.345c4.926-1.383,9.599-1.521,13.319,0.922c9.321,6.119,5.599,23.706,7.508,31.165
					C244.857,194.918,249.38,191.828,252.915,187.369z"/>
			</g>
		</g>
		<path style="fill:#FFFFFF;" d="M114.819,282.415c0.169-0.013-2.371-2.91-4.791-5.708c1.253-6.445,10.061-44.409-1.419-45.281
			c0,0-10.127,11.412-11.274,40.407c-0.03,0.241,0.013,7.964,0.015,7.965c0.245,2.707,16.494,19.559,25.729,24.967
			c1.767-1.72,3.478-3.497,5.206-5.258L114.819,282.415z"/>
		<g>
			<path style="fill:#FCC6BA;" d="M128.284,299.509l-13.465-17.093c0.169-0.013-2.371-2.91-4.791-5.708
				c0.215-1.106,0.654-3.123,1.173-5.688c-6.745-4.643-10.444-5.17-13.465-5.015c-0.181,1.857-0.321,3.792-0.402,5.83
				c-0.03,0.241,0.013,7.964,0.015,7.965c0.245,2.707,16.494,19.559,25.729,24.967C124.846,303.046,126.557,301.269,128.284,299.509
				z"/>
		</g>
		<g>
			<path style="fill:#6588FC;" d="M126.414,297.972c0,0,5.291-5.178,6.239-8.168c0.948-2.989,3.003,0.635,1.787,3.435
				c-1.216,2.799-2.202,4.924-2.202,4.924l5.215,1.234c0,0,3.149,6.567-7.604,9.198l-8.091-3.64
				C121.758,304.956,122.9,299.496,126.414,297.972z"/>
			<path style="fill:#6588FC;" d="M136.439,299.152c0,0,7.055,0.683,7.826,0.701c3.536,0.082,3.912,2.094,2.163,2.033
				c-2.7-0.095-11.262,0.165-11.262,0.165L136.439,299.152z"/>
			<path style="fill:#6588FC;" d="M135.861,304.855c0,0,13.214,1.616,13.087,0.818c-0.128-0.798-2.395-2.302-4.556-2.513
				c-3.335-0.326-10.106-1.47-10.106-1.47L135.861,304.855z"/>
			<path style="fill:#6588FC;" d="M133.021,307.501c0,0,12.053,2.265,12.023,1.473c-0.03-0.792-1.963-2.388-3.94-2.706
				c-3.051-0.491-9.192-1.963-9.192-1.963L133.021,307.501z"/>
			<path style="fill:#6588FC;" d="M128.389,307.731c0,0,9.35,5.443,9.559,4.776c0.209-0.667-0.927-2.565-2.476-3.413
				c-2.391-1.309-7.061-4.346-7.061-4.346L128.389,307.731z"/>
			<path style="fill:#6588FC;" d="M123.783,305.867c0,0-4.776-1.701-6.703-2.656c-2.147-1.064,3.881-9.724,7.089-10.809
				c3.208-1.086,1.015,2.292,4.878,3.648L123.783,305.867z"/>
			<path style="fill:#6588FC;" d="M133.324,295.77c0,0-1.372,3.254,3.475,3.6l-7.057,0.238L133.324,295.77z"/>
		</g>
		
			<line style="fill:none;stroke:#223242;stroke-width:0.75;stroke-linecap:round;stroke-linejoin:round;stroke-miterlimit:10;" x1="113.182" y1="261.782" x2="116.628" y2="249.322"/>
		<g>
			<path style="fill:#6588FC;" d="M191.3,243.438c0,0-1.147,1.219-4.557,1.472c-3.411,0.254-6.972,1.435-6.37,2.64
				c0.602,1.204,6.534,0.792,6.534,0.792S193.223,246.818,191.3,243.438z"/>
			<path style="fill:#6588FC;" d="M189.004,247.054c0,0-1.147,1.219-4.557,1.472c-3.41,0.254-4.933,1.542-4.331,2.746
				c0.602,1.204,4.495,0.686,4.495,0.686S190.927,250.434,189.004,247.054z"/>
			<path style="fill:#6588FC;" d="M186.347,250.583c0,0-0.811,0.861-3.221,1.041c-2.411,0.179-3.487,1.09-3.062,1.941
				c0.425,0.851,3.177,0.485,3.177,0.485S187.707,252.972,186.347,250.583z"/>
			<path style="fill:#6588FC;" d="M192.705,242.16c0,0-1.509,0.723-4.782-0.269c-3.273-0.992-5.157-0.34-5.03,1
				c0.127,1.34,3.946,2.26,3.946,2.26S193.281,246.007,192.705,242.16z"/>
		</g>
		
			<path style="fill:#FFFFFF;stroke:#223242;stroke-width:0.75;stroke-linecap:round;stroke-linejoin:round;stroke-miterlimit:10;" d="
			M153.95,263.973c0,0,4.276-4.441,4.282-9.203c0.006-4.417-4.737-9.58-4.737-9.58l-0.513-7.453"/>
		
			<path style="fill:#FFFFFF;stroke:#223242;stroke-width:0.75;stroke-linecap:round;stroke-linejoin:round;stroke-miterlimit:10;" d="
			M125.005,263.973c0,0,7.645,5.049,17.21,2.008"/>
		
			<rect x="124.61" y="249.21" transform="matrix(0.9683 -0.2499 0.2499 0.9683 -58.5927 40.2864)" style="fill:#6588FC;" width="9.515" height="3.389"/>
		<path style="fill:none;stroke:#FFFFFF;stroke-width:0.75;stroke-linecap:round;stroke-miterlimit:10;" d="M121.976,447.06
			c0,0,2.995-1.651,6.093,0"/>
		<path style="fill:none;stroke:#FFFFFF;stroke-width:0.75;stroke-linecap:round;stroke-miterlimit:10;" d="M123.562,448.826
			c0,0,2.995-1.651,6.093,0"/>
		<path style="fill:none;stroke:#FFFFFF;stroke-width:0.75;stroke-linecap:round;stroke-miterlimit:10;" d="M153.411,444.361
			c0,0,1.791-0.987,4.035-0.672"/>
		<path style="fill:none;stroke:#FFFFFF;stroke-width:0.75;stroke-linecap:round;stroke-miterlimit:10;" d="M150.068,443.303
			c0,0,1.791-0.987,4.035-0.672"/>
	</g>
	<g>
		<ellipse style="opacity:0.52;fill:#BBC5D4;" cx="423.238" cy="459.523" rx="48.845" ry="3.189"/>
		<g>
			<path style="fill:#6588FC;" d="M462.48,459.523h-78.485c-2.831,0-5.125-2.295-5.125-5.126V343.139
				c0-2.831,2.295-5.126,5.125-5.126h78.485c2.831,0,5.125,2.295,5.125,5.126v111.258
				C467.606,457.228,465.311,459.523,462.48,459.523z"/>
			<rect x="387.996" y="338.014" style="fill:#FFFFFF;" width="70.484" height="112.255"/>
			<path style="fill:#909AB5;" d="M438.915,332.388h-4.304c-0.785,0-1.482-0.562-1.587-1.34c-0.654-4.821-4.786-8.537-9.787-8.537
				c-5,0-9.133,3.716-9.787,8.537c-0.105,0.778-0.802,1.34-1.587,1.34h-4.304c-0.866,0-1.568,0.702-1.568,1.568v9.093
				c0,0.866,0.702,1.568,1.568,1.568h31.356c0.866,0,1.568-0.702,1.568-1.568v-9.093
				C440.483,333.09,439.781,332.388,438.915,332.388z M423.238,336.464c-2.251,0-4.076-1.825-4.076-4.076
				c0-2.251,1.825-4.076,4.076-4.076c2.251,0,4.076,1.825,4.076,4.076C427.314,334.639,425.489,336.464,423.238,336.464z"/>
			<g>
				<g>
					<path style="fill:#6588FC;" d="M446.153,357.961c-0.647-1.201-1.772-1.729-2.864-2c-0.991-0.246-1.982-0.006-2.86,0.604
						c-0.601,0.418-1.271,0.63-1.943,0.637c-0.058-0.001-0.289-0.001-0.347,0c-0.671-0.007-1.341-0.219-1.943-0.637
						c-0.878-0.61-1.869-0.85-2.86-0.604c-1.092,0.271-2.217,0.799-2.864,2c-1.139,2.114-0.907,5.243,0.225,7.274
						c0.238,0.427,0.269,0.983,0.24,1.503c-0.041,0.752-0.053,1.457-0.028,2.209c0.03,0.928,0.1,1.858,0.247,2.769
						c0.252,1.563,0.749,3.128,1.717,4.214c0.241,0.271,0.507,0.507,0.79,0.705c0.793,0.554,1.666,0.036,2.031-0.953
						c0.231-0.626,0.27-1.332,0.319-2.019c0.108-1.515,0.529-2.93,1.898-3.11c0.076-0.01,0.152-0.014,0.228-0.012
						c0.058-0.001,0.116,0.004,0.174,0.009c0.058-0.005,0.116-0.011,0.174-0.009c0.076-0.002,0.152,0.002,0.228,0.012
						c1.368,0.181,1.79,1.595,1.898,3.11c0.049,0.687,0.088,1.393,0.319,2.019c0.365,0.99,1.238,1.507,2.031,0.953
						c0.283-0.198,0.549-0.434,0.79-0.705c0.968-1.086,1.465-2.651,1.717-4.214c0.147-0.911,0.218-1.841,0.248-2.769
						c0.024-0.752,0.013-1.457-0.029-2.209c-0.029-0.52,0.002-1.076,0.24-1.503C447.06,363.204,447.293,360.076,446.153,357.961z"/>
					<path style="fill:#FFFFFF;" d="M433.916,373.835c-0.309-0.632-0.547-1.446-0.703-2.406c-0.121-0.748-0.194-1.579-0.225-2.539
						c-0.021-0.676-0.013-1.328,0.027-2.052c0.036-0.643,0.026-1.603-0.471-2.495c-0.892-1.601-0.988-4.073-0.213-5.512
						c0.189-0.351,0.52-0.744,1.541-0.997c0.081-0.02,0.159-0.03,0.239-0.03c0.322,0,0.635,0.171,0.842,0.315
						c0.945,0.656,2.038,1.01,3.162,1.022h0.353c1.167-0.012,2.26-0.365,3.205-1.022c0.207-0.143,0.521-0.315,0.842-0.315
						c0.079,0,0.157,0.009,0.238,0.03c1.021,0.253,1.351,0.646,1.54,0.997c0.776,1.438,0.681,3.91-0.211,5.511
						c-0.496,0.891-0.507,1.851-0.472,2.495c0.04,0.724,0.048,1.376,0.027,2.053c-0.031,0.96-0.105,1.79-0.225,2.538
						c-0.155,0.961-0.394,1.775-0.703,2.407c-0.005-0.063-0.021-0.3-0.021-0.3c-0.263-3.684-2.147-4.699-3.681-4.901
						c-0.164-0.022-0.324-0.032-0.482-0.032c-0.079,0-0.146,0.002-0.207,0.004c-0.053-0.002-0.164-0.004-0.166-0.004
						c-0.213,0-0.371,0.01-0.529,0.031c-1.538,0.203-3.422,1.218-3.685,4.901C433.938,373.534,433.921,373.772,433.916,373.835z"/>
				</g>
				<polyline style="fill:none;stroke:#6588FC;stroke-linecap:round;stroke-linejoin:round;stroke-miterlimit:10;" points="
					436.377,363.62 438.149,365.463 440.527,362.479 				"/>
			</g>
			<g>
				<path style="fill:#6588FC;" d="M421.451,384.438h-22.399c-0.563,0-1.019-0.456-1.019-1.019l0,0c0-0.563,0.456-1.019,1.019-1.019
					h22.399c0.563,0,1.019,0.456,1.019,1.019l0,0C422.47,383.982,422.014,384.438,421.451,384.438z"/>
				<path style="fill:#6588FC;" d="M447.424,390.984h-48.372c-0.563,0-1.019-0.456-1.019-1.019l0,0c0-0.563,0.456-1.019,1.019-1.019
					h48.372c0.563,0,1.019,0.456,1.019,1.019l0,0C448.443,390.528,447.987,390.984,447.424,390.984z"/>
				<path style="fill:#6588FC;" d="M447.424,397.941h-48.372c-0.563,0-1.019-0.456-1.019-1.019l0,0c0-0.563,0.456-1.019,1.019-1.019
					h48.372c0.563,0,1.019,0.456,1.019,1.019l0,0C448.443,397.485,447.987,397.941,447.424,397.941z"/>
				<path style="fill:#6588FC;" d="M447.424,404.898h-48.372c-0.563,0-1.019-0.456-1.019-1.019l0,0c0-0.563,0.456-1.019,1.019-1.019
					h48.372c0.563,0,1.019,0.456,1.019,1.019l0,0C448.443,404.442,447.987,404.898,447.424,404.898z"/>
				<path style="fill:#6588FC;" d="M447.424,411.855h-48.372c-0.563,0-1.019-0.456-1.019-1.019l0,0c0-0.563,0.456-1.019,1.019-1.019
					h48.372c0.563,0,1.019,0.456,1.019,1.019l0,0C448.443,411.399,447.987,411.855,447.424,411.855z"/>
				<path style="fill:#6588FC;" d="M447.424,418.812h-48.372c-0.563,0-1.019-0.456-1.019-1.019l0,0c0-0.563,0.456-1.019,1.019-1.019
					h48.372c0.563,0,1.019,0.456,1.019,1.019l0,0C448.443,418.356,447.987,418.812,447.424,418.812z"/>
				<path style="fill:#6588FC;" d="M447.424,426.573h-48.372c-0.563,0-1.019-0.456-1.019-1.019l0,0c0-0.563,0.456-1.019,1.019-1.019
					h48.372c0.563,0,1.019,0.456,1.019,1.019l0,0C448.443,426.117,447.987,426.573,447.424,426.573z"/>
				<path style="fill:#6588FC;" d="M447.424,433.53h-48.372c-0.563,0-1.019-0.456-1.019-1.019l0,0c0-0.563,0.456-1.019,1.019-1.019
					h48.372c0.563,0,1.019,0.456,1.019,1.019l0,0C448.443,433.074,447.987,433.53,447.424,433.53z"/>
			</g>
			<polygon style="fill:#223242;" points="458.479,450.268 387.996,450.268 387.996,452.876 423.238,451.572 458.479,452.876 			"/>
		</g>
	</g>
	<g>
		<path style="fill:#FFFFFF;" d="M307.588,101.64l2.566,7.51c0.041,0.119,0.125,0.218,0.236,0.278l7.808,2.543
			c0.439,0.143,0.438,0.764-0.001,0.906l-7.767,2.503c-0.109,0.061-0.192,0.16-0.231,0.279l-2.504,7.549
			c-0.15,0.453-0.791,0.456-0.945,0.004l-2.566-7.51c-0.041-0.119-0.125-0.218-0.236-0.278l-7.551-2.462
			c-0.508-0.166-0.513-0.883-0.004-1.047c2.635-0.845,7.515-2.443,7.515-2.443c0.109-0.061,0.192-0.16,0.231-0.279l2.504-7.549
			C306.793,101.191,307.433,101.188,307.588,101.64z"/>
		<path style="fill:#FFFFFF;" d="M325.713,87.743l1.391,4.072c0.022,0.065,0.068,0.118,0.128,0.151l4.233,1.379
			c0.238,0.077,0.237,0.414-0.001,0.491l-4.211,1.357c-0.059,0.033-0.104,0.087-0.125,0.151l-1.357,4.093
			c-0.081,0.246-0.429,0.247-0.512,0.002l-1.391-4.072c-0.022-0.065-0.068-0.118-0.128-0.151l-4.094-1.335
			c-0.275-0.09-0.278-0.479-0.002-0.567c1.429-0.458,4.074-1.325,4.074-1.325c0.059-0.033,0.104-0.087,0.125-0.151l1.357-4.093
			C325.282,87.5,325.629,87.499,325.713,87.743z"/>
		<path style="fill:#FFFFFF;" d="M453.273,162.832l1.391,4.072c0.022,0.064,0.068,0.118,0.128,0.151l4.233,1.379
			c0.238,0.077,0.237,0.414-0.001,0.491l-4.211,1.357c-0.059,0.033-0.104,0.087-0.125,0.151l-1.357,4.093
			c-0.081,0.246-0.429,0.247-0.512,0.002l-1.391-4.072c-0.022-0.065-0.068-0.118-0.128-0.151l-4.094-1.335
			c-0.276-0.09-0.278-0.479-0.002-0.567c1.429-0.458,4.074-1.325,4.074-1.325c0.059-0.033,0.104-0.087,0.125-0.151l1.357-4.093
			C452.842,162.589,453.189,162.587,453.273,162.832z"/>
	</g>
	<path style="fill:none;stroke:#FFFFFF;stroke-width:0.75;stroke-linecap:round;stroke-miterlimit:10;" d="M134.556,215.704"/>
</g>
</svg>
