<?xml version="1.0" encoding="utf-8"?>
<!-- Generator: Adobe Illustrator 27.5.0, SVG Export Plug-In . SVG Version: 6.00 Build 0)  -->
<svg version="1.1" id="Layer_1" xmlns="http://www.w3.org/2000/svg" xmlns:xlink="http://www.w3.org/1999/xlink" x="0px" y="0px"
	 viewBox="0 0 3000 2000" style="enable-background:new 0 0 3000 2000;" xml:space="preserve">
<rect transform="matrix(-1 -1.224647e-16 1.224647e-16 -1 3000 2000)" style="fill:#FFFFFF;" width="3000" height="2000"/>
<g>
	<path style="fill:#EDF4FF;" d="M2588.285,1709.634c0,0,201.76-415.876-84.031-727.161
		c-285.791-311.284-531.589-138.821-656.297-147.47c-124.709-8.649-159.857-306.759-528.79-388.985
		C950.236,363.793,601.6,540.396,638.745,811.615c55.448,404.861-636.414,196.534-281.015,899.751L2588.285,1709.634z"/>
	<polygon style="fill:#AFCDFB;" points="1199.152,1699.559 418.386,902.432 448.245,872.573 1229.011,1669.699 	"/>
	<g>
		<g>
			<path style="fill:#6488D3;" d="M1143.434,1707.794h344.553c39.18,0,73.964-15.625,93.049-41.797
				c18.229-25.003,18.095-54.81-0.362-79.737l-106.798-140.387h-72.507l123.532,166.012c6.767,9.138,6.819,19.628,0.146,28.779
				c-7.427,10.188-21.281,16.268-37.06,16.268h-284.328C1170.398,1656.932,1143.434,1679.703,1143.434,1707.794L1143.434,1707.794z"
				/>
		</g>
		<path style="fill:#7EA6ED;" d="M1241.539,1596.522h214.693c6.745,0,12.265,5.52,12.265,12.267v35.877
			c0,6.746-5.52,12.266-12.265,12.266h-214.693c-6.747,0-12.266-5.52-12.266-12.266v-35.877
			C1229.273,1602.042,1234.792,1596.522,1241.539,1596.522z"/>
		<path style="fill:#AFCDFB;" d="M1412.469,1345.52l282.093-352.187c8.205-11.447,15.999-21.208,23.481-29.42
			c22.87-25.098,56.773-37.092,90.363-32.128l0,0c41.852,8.05,57.081,54.944,49.044,96.807l-263.386,351.83
			c-5.239,27.271-24.401,48.525-48.695,57.784c-2.619,0.993-5.286,1.854-8.014,2.571c-10.801,2.835-22.367,3.361-34.03,1.126
			l-29.375-5.646C1432.098,1428.219,1404.419,1387.383,1412.469,1345.52z"/>
		<path style="fill:#FFB07B;" d="M1014.78,1285.068l21.855,28.83c0,0,142.761-1.495,187.428-21.694
			c14.512-6.563,146.915,4.442,184.293-10.025c7.993-3.093,14.644-7.205,19.567-12.845c28.341-32.552,12.688-69.208,12.688-69.208
			s-56.898-5.87-111.784-1.679c-39.101,3.006-98.071,13.36-122.25,27.808C1168.552,1248.978,1014.78,1285.068,1014.78,1285.068z"/>
		<path style="fill:#415DA5;" d="M982.309,1235.264c2.254,0.189,4.37,1.545,5.73,3.645c3.36,5.182,8.417,15.924,20.057,23.402
			c6.54,4.211,26.282,22.119,26.282,22.119l0.063,0.107c0.156,0.488,0.305,3.005-3.808,15.555
			c-2.121,6.485,10.177,12.186,10.177,12.186s-0.655,2.066-2.501,4.065c-1.45,1.599-3.657,3.149-6.871,3.593
			c-4.53,0.636-11.581,5.874-16.245,9.73c-2.824,2.341-4.772,4.164-4.772,4.164s-2.472,1.501-7.313-8.926l-4.237-12.585
			c-0.832-4.417-0.801-7.892-1.755-12.383c-1.45-6.824-4.847-9.047-5.597-9.464c-0.099-0.057-0.15-0.078-0.15-0.078l-17.995-53.472
			C974.618,1235.006,978.987,1234.973,982.309,1235.264z"/>
		<path style="fill:#FFB07B;" d="M1595.913,945.413c0,0-10.935,16.692-20.104,35.4c-3.923,7.996-7.514,16.369-9.8,23.964
			l57.692,34.15c0,0-0.64-33.093,10.646-52.618c0.669-1.158,1.38-2.272,2.137-3.333c2.307-3.194,5.01-5.863,8.212-7.727
			l-5.286-8.074l-21.641-10.832L1595.913,945.413z"/>
		<path style="fill:#EA8E50;" d="M1595.913,945.413c0,0-10.935,16.692-20.104,35.4c21.902,11.24,48.788,7.434,58.538,5.497
			c0.669-1.158,1.38-2.272,2.137-3.333l-8.574-13.174l-10.141-13.458L1595.913,945.413z"/>
		<path style="fill:#FFB07B;" d="M1571.822,959.353c0,0,50.272,50.655,81.334,18.861c31.063-31.792,58.472-46.667,27.688-80.353
			c-30.784-33.684-48.969-27.739-61.919-19.649C1605.977,886.302,1559.545,945.357,1571.822,959.353z"/>
		<path style="fill:#AA3E39;" d="M1327.647,1202.563c-0.193,3.27,0.126,30.683,17.748,42.716
			c11.422,7.865,39.196,27.033,65.938,36.861c7.826-3.495,14.259-7.941,18.888-13.824c26.648-33.951,9.151-69.764,9.151-69.764
			S1382.249,1195.585,1327.647,1202.563z"/>
		<path style="fill:#B84C42;" d="M1514.65,1185.218c0,0-63.338,16.856-109.308-1.924c0,0-39.639,11.106-86.176,15.918
			c0,0,16.504,75.377,27.137,88.146c3.448,4.141,60.886,4.229,98.764,4.836c22.681,0.363,44.403-9.299,59.147-26.536
			c6.076-7.104,12.586-15.491,18.929-25.072C1546.694,1205.013,1514.65,1185.218,1514.65,1185.218z"/>
		<path style="fill:#739CF3;" d="M1430.457,1135.625l18.192-25.889l17.139-21.991c26.048-33.423,58.466-61.346,95.378-82.155
			l6.372-3.592c0,0,42.77,6.529,58.966,11.091c0,0,7.56,44.564-0.282,67.382c-4.735,13.26-35.006,81.932-95.567,152.455
			c0,0-51.96,18.551-96.348-22.438c-6.818-6.139-28.931-16.542-33.581-30.59C1399.159,1175.166,1427.021,1139.236,1430.457,1135.625
			z"/>
		<path style="fill:#B84C42;" d="M1704.131,1015.146l56.475-67.68c8.61-10.318,6.799-25.748-3.968-33.792l-1.555-1.161
			c-10.137-7.573-24.455-5.731-32.347,4.16l-54.922,68.841c-7.963,9.981-6.471,24.5,3.355,32.653h0.001
			C1681.112,1026.416,1695.854,1025.065,1704.131,1015.146z"/>
		<path style="fill:#2C3A64;" d="M1722.865,918.518c0,0-2.966-1.371-6.631-0.728c0-0.037,0.001-0.064,0.001-0.064
			c5.471-7.755,3.645-21.007,3.645-21.007c0.279,7.181-7.058,14.713-7.058,14.713c2.744-26.161-59.923-50.041-65.7-52.412
			c-5.776-2.372-3.842-12.231-3.842-12.231c-12.619,1.016-27.569,15.209-29.026,30.59c-1.459,15.383,4.193,57.938,11.06,53.302
			c14.84-10.02,16.684,13.294,2.353,19.711c-9.836,4.404-2.944,24.834,6.098,34.744c7.283,7.981,12.249,2.628,17.319,0.61
			c1.257-0.5,2.574-0.848,3.922-0.984c19.339-1.956,41.161-18.227,53.745-40.813c4.999-8.973,6.669-18.367,7.221-23.102
			C1717.692,920.102,1721,918.749,1722.865,918.518z"/>
		<path style="fill:#6488D3;" d="M1589.332,1051.565c0,0,26.389,41.405,1.668,97.918c0,0-32.538,51.536-60.345,83.442
			c0,0-50.361,24.832-108.112-28.641l60.318-25.667L1589.332,1051.565z"/>
		<path style="fill:#FFB07B;" d="M1332.841,1195.609c1.947-2.278,9.22-10.633,32.777-10.88l0,0
			c25.778-2.238,101.005-9.545,107.604-19.104c4.466-6.469,66.207-130.488,71.625-131.32c17.767-2.608,48.586,29.444,44.032,45.132
			c0,0-63.587,129.468-77.648,132.043c-22.71,4.021-103.879,1.069-134.086-5.42c-3.655,1.969-17.837,9.589-21.231,11.088
			c-3.905,1.724-19.095,1.685-25.193-2.692C1324.62,1210.079,1328.572,1200.603,1332.841,1195.609z"/>
		<path style="fill:#739CF3;" d="M1510.02,1091.131c10.584,19.705,31.106,35.852,58.347,41.218
			c5.368-6.394,20.513-52.912,20.513-52.912c4.554-15.688,6.139-69.442-42.492-49.986
			C1515.972,1041.618,1513.93,1080.633,1510.02,1091.131z"/>
		<path style="fill:#9FC1F4;" d="M922.987,1559.933l268.873-116.835l-59.76-137.525l-268.873,116.835
			c-33.392,14.511-48.7,53.343-34.189,86.735l7.214,16.601C850.762,1559.136,889.595,1574.443,922.987,1559.933z"/>
		<path style="fill:#7EA6ED;" d="M1091.437,1421.403v-98.161l40.663-17.67l59.761,137.525l-54.882,23.848l0,0
			C1111.826,1466.945,1091.437,1446.556,1091.437,1421.403z"/>
		<path style="fill:#9FC1F4;" d="M1165.877,1289.923h318.532l256.407-305.948c20.174-26.435,32.519-38.277,48.288-47.722
			c6.686-4.004,14.643-5.333,22.296-3.864l0,0c0.872,0.168,1.738,0.35,2.598,0.546c51.126,11.652,38.271,67.065,39.747,114.715
			l-259.68,332.771c-2.685,13.979-9.035,26.371-17.854,36.383c-9.181,17.447-27.388,29.068-47.875,29.068h-362.461
			c-6.504,0-12.75-1.164-18.54-3.295c-7.443-2.738-14.131-7.073-19.643-12.586c-9.799-9.799-15.881-23.315-15.881-38.183l0,0
			v-31.579v-16.242C1111.812,1314.252,1136.142,1289.923,1165.877,1289.923z"/>
		<path style="fill:#6488D3;" d="M1113.371,1374.817h479.245c3.282,0,18.801,0.314,18.801-5.967l0,0
			c0-3.281-2.685-5.966-5.967-5.966h-492.079c-3.281,0-5.967,2.685-5.967,5.966l0,0
			C1107.404,1372.132,1110.09,1374.817,1113.371,1374.817z"/>
	</g>
	
		<rect x="308.884" y="604.643" transform="matrix(-0.7071 0.7071 -0.7071 -0.7071 1675.8677 557.3461)" style="fill:#AFCDFB;" width="827.239" height="42.227"/>
	
		<rect x="976.959" y="414.398" transform="matrix(-0.7071 -0.7071 0.7071 -0.7071 1545.386 1511.1434)" style="fill:#AFCDFB;" width="217.404" height="42.227"/>
	<g>
		<path style="fill:#6488D3;" d="M1148.002,497.852c-47.246,47.246-61.627,109.467-32.12,138.974
			c29.507,29.507,91.728,15.126,138.974-32.12c47.246-47.246,61.626-109.467,32.12-138.974
			C1257.468,436.226,1195.248,450.606,1148.002,497.852z"/>
		
			<ellipse transform="matrix(0.7071 -0.7071 0.7071 0.7071 -63.3246 1072.3297)" style="fill:#9FC1F4;" cx="1262.754" cy="612.604" rx="214.56" ry="134"/>
		<path style="fill:#739CF3;" d="M1099.528,618.452c-15.596,50.358-10.55,97.31,18.509,126.369
			c52.331,52.33,162.679,26.827,246.469-56.964c31.297-31.297,54.458-66.299,68.473-100.6
			c-12.489,40.327-38.212,82.838-75.473,120.1c-83.791,83.791-194.139,109.294-246.469,56.964
			C1078.253,731.537,1076.022,675.982,1099.528,618.452z"/>
		
			<ellipse transform="matrix(0.7071 -0.7071 0.7071 0.7071 -69.6219 1087.5323)" style="fill:#C5DDF9;" cx="1277.957" cy="627.807" rx="167.324" ry="104.5"/>
		<path style="fill:#FFFFFF;" d="M1268.455,612.648c-17.574,17.574-22.923,40.717-11.947,51.692
			c10.976,10.976,34.119,5.626,51.692-11.947c17.574-17.574,22.923-40.717,11.947-51.692
			C1309.172,589.726,1286.029,595.075,1268.455,612.648z"/>
		<path style="fill:#FFFFFF;" d="M1219.311,559.262c-17.574,17.574-22.922,40.717-11.947,51.692
			c10.976,10.975,34.119,5.627,51.692-11.947c17.574-17.574,22.923-40.717,11.947-51.692
			C1260.028,536.34,1236.885,541.688,1219.311,559.262z"/>
		<path style="fill:#FFFFFF;" d="M1345.53,535.574c-17.574,17.573-22.922,40.717-11.947,51.692
			c10.975,10.975,34.119,5.626,51.692-11.947c17.574-17.574,22.922-40.717,11.947-51.692
			C1386.247,512.651,1363.104,518,1345.53,535.574z"/>
		<path style="fill:#FFFFFF;" d="M1194.209,686.895c-17.574,17.574-22.923,40.717-11.947,51.692s34.119,5.627,51.692-11.947
			c17.573-17.574,22.922-40.717,11.947-51.692C1234.926,663.973,1211.782,669.321,1194.209,686.895z"/>
		<path style="fill:#FFFFFF;" d="M1317.245,661.439c-13.502,13.503-17.612,31.285-9.179,39.718
			c8.433,8.433,26.215,4.323,39.718-9.18c13.502-13.503,17.612-31.285,9.179-39.718
			C1348.53,643.827,1330.748,647.937,1317.245,661.439z"/>
	</g>
	<circle style="fill:#6488D3;" cx="1004.077" cy="353.927" r="51.5"/>
	<path style="fill:#AFCDFB;" d="M982.743,353.927c0,11.782,9.551,21.334,21.334,21.334c11.782,0,21.333-9.551,21.333-21.334
		c0-11.782-9.551-21.333-21.333-21.333C992.294,332.594,982.743,342.145,982.743,353.927z"/>
	<circle style="fill:#6488D3;" cx="450.442" cy="897.818" r="51.5"/>
	<path style="fill:#AFCDFB;" d="M429.109,897.818c0,11.782,9.551,21.333,21.333,21.333s21.333-9.551,21.333-21.333
		c0-11.782-9.551-21.333-21.333-21.333S429.109,886.036,429.109,897.818z"/>
	<g>
		<g>
			<path style="fill:#2C3A64;" d="M513.64,1609.555c0,0-21.268,19.711-17.118,33.717c4.149,14.006,23.343,23.344,25.937,40.461
				c2.593,17.117,12.968,26.455,22.304,26.455c9.337,0,44.515,0,44.515,0s6.873-12.046-9.726-15.677
				c-16.6-3.631-22.859-23.746-21.821-42.42c1.037-18.675-1.556-43.573-1.556-43.573l-35.274-8.3L513.64,1609.555z"/>
			<path style="fill:#2C3A64;" d="M778.71,1709.468c0.333,0.172,0.802,0.325,1.398,0.479h119.066
				c-1.037-4.213-4.854-12.225-18.794-14.49c-18.594-3.014-50.813-13.821-58.004-37.596c-0.226-0.767-0.433-1.552-0.613-2.345
				c-5.711-25.416-47.205,7.785-47.205,7.785s-0.126,1.011-0.307,2.734C773.297,1675.355,770.833,1705.525,778.71,1709.468z"/>
			<path style="fill:#F1A34F;" d="M875.443,1029.619c0,0-6.303,78.634-13.711,173.156c-10.068,128.4-22.176,286.118-23.373,315.996
				c-2.07,51.884-10.38,134.874-10.38,134.874s-19.701,19.717-59.135,11.406c0,0-35.139-118.472-45.176-243.82
				c-0.156-2.055-0.312-4.125-0.467-6.194c-9.337-127.606-23.856-396.31-23.856-396.31L875.443,1029.619z"/>
			<path style="fill:#E58435;" d="M875.443,1029.619c0,0-6.303,78.634-13.711,173.156l-138.063,218.456
				c-0.156-2.055-0.312-4.125-0.467-6.194c-9.337-127.606-23.856-396.31-23.856-396.31L875.443,1029.619z"/>
			<path style="fill:#F1A34F;" d="M846.661,1038.958c0,0-113.601,284.779-188.297,418.61c-74.697,133.831-98.04,171.18-98.04,171.18
				s-42.794-17.118-46.685-28.79c0,0,28.564-258.367,78.587-321.35c28.266-35.589,61.468-142.39,63.024-179.738
				c1.557-37.348,10.116-111.267,10.116-111.267L846.661,1038.958z"/>
		</g>
		<g>
			<path style="fill:#F4AC75;" d="M811.853,511.664c-42.325,13.351-115.567-22.694-115.567-22.694s33.024-24.781,36.72-76.19
				c0.062-0.706,0.104-1.412,0.135-2.128c0.218-3.81,0.27-7.776,0.135-11.876l11.585,9.332l43.364,34.965
				c0,0-2.222,17.233-3.114,45.959c6.873,3.769,12.375,7.932,16.548,11.638C808.542,506.775,811.853,511.664,811.853,511.664z"/>
			<path style="fill:#F4AC75;" d="M649.31,483.489c0,0,111.876-17.649,185.585,31.144c0,0,50.075,327.359,6.473,358.333
				c-43.603,30.974-192.058,0-192.058,0V483.489z"/>
			<path style="fill:#ABDDDA;" d="M798.607,1225.135h-202.17c0,0,23.493-344.968,30.2-428.944
				c5.45-68.113,16.974-231.424,21.137-290.713c0.966-13.818,1.537-21.988,1.537-21.988l48.264-8.222l82.896,107.438
				c0,0,13.112,286.52,12.634,331.68c-0.467,45.159,5.232,221.115,5.502,250.703
				C798.866,1194.664,798.607,1225.135,798.607,1225.135z"/>
			<path style="fill:#ABDDDA;" d="M780.475,582.709l18.126,642.428h95.251c0,0-4.406-422.526-4.729-461.347
				c-0.323-38.82,10.351-206.049-19.374-232.003c-24.848-21.696-84.639-42.759-84.639-42.759L780.475,582.709z"/>
			<path style="fill:#91CECF;" d="M785.722,474.204c0,0,27.155,18.709,26.135,25.426c-1.021,6.717-4.747,17.34-4.747,17.34
				l-16.611-3.373l14.015,9.862c0,0-15.895,46.351-24.039,59.251L785.722,474.204z"/>
			<path style="fill:#91CECF;" d="M636.387,665.565c11.884-73.069,149.268,34.908,137.847,130.746
				c-21.128,177.306-111.096,375.001-177.797,428.824L636.387,665.565z"/>
			<path style="fill:#C97C47;" d="M733.006,412.78c-0.187-1.316-0.612-1.962-0.612-1.962l0.747-0.166l11.721-2.544l43.364,34.965
				c0,0-1.876,16.28-3.218,46.035C784.895,488.959,740.321,464.283,733.006,412.78z"/>
			<path style="fill:#F4AC75;" d="M805.893,453.695c0,0-75.497-2.113-73.457-49.108c2.04-46.996-6.331-78.918,41.958-79.556
				c48.289-0.638,56.87,17.701,60.004,33.553C837.532,374.435,825.583,453.034,805.893,453.695z"/>
			<path style="fill:#2C3A64;" d="M732.395,410.818c0,0,9.83,2.595,17.616-7.786c7.786-10.381,20.763-50.351,37.893-52.946
				c17.13-2.595,39.709,10.122,46.992,2.855c10.613-10.591,24.305-27.926,24.305-27.926s-84.966-60.576-118.879-32.546
				C706.408,320.499,694.536,361.506,732.395,410.818z"/>
			<g>
				<path style="fill:#2C3A64;" d="M834.36,578.653c-1.592-29.105-17.479-76.527-17.617-76.983l4.529,2.013
					c0.571,1.893,13.198,45.177,14.824,74.905L834.36,578.653z"/>
			</g>
			<g>
				<path style="fill:#2C3A64;" d="M724.406,665.565c-1.593-1.654-40.458-39.036-32.169-65.221
					c3.23-10.206,9.177-14.217,15.487-17.192c5.886-2.142,19.618-4.377,26.714,0.086c12.949,8.147,19.475,30.662,21.395,68.105
					l-1.579,0.08c-2.277-44.413-13.729-60.495-22.282-64.12c-10.756-4.557-29.622-2.667-35.557,14.535
					c-4.089,11.85,3.933,28.42,11.376,39.795c8.267,12.634,17.274,23.833,17.367,23.931H724.406z"/>
			</g>
			<path style="fill:#B64C41;" d="M728.443,669.602L728.443,669.602c-1.489,1.489-3.925,1.489-5.414,0l-2.661-2.661
				c-1.489-1.489-1.489-3.925,0-5.414l0,0c1.488-1.488,3.925-1.488,5.414,0l2.661,2.662
				C729.932,665.677,729.932,668.113,728.443,669.602z"/>
			<path style="fill:#B64C41;" d="M755.188,658.492L755.188,658.492c-2.106,0-3.829-1.722-3.829-3.828v-3.763
				c0-2.106,1.723-3.828,3.829-3.828l0,0c2.105,0,3.828,1.722,3.828,3.828v3.763C759.015,656.77,757.292,658.492,755.188,658.492z"
				/>
			<path style="fill:#2C3A64;" d="M824.514,578.653c0-5.733,4.648-10.382,10.382-10.382c5.733,0,10.381,4.648,10.381,10.382
				c0,5.734-4.648,10.381-10.381,10.381C829.162,589.034,824.514,584.387,824.514,578.653z"/>
			<path style="fill:#D6716B;" d="M830.007,578.653c0-2.914,2.363-5.277,5.277-5.277c2.914,0,5.277,2.362,5.277,5.277
				c0,2.915-2.363,5.277-5.277,5.277C832.37,583.93,830.007,581.567,830.007,578.653z"/>
			<g>
				<path style="fill:#91CECF;" d="M787.847,1225.135c-0.067-0.647-6.608-65.355-4.721-121.6c0.797-23.763,0.123-51.701-0.527-78.72
					c-0.929-38.538-3-75.653,0.113-99.853c5.329-41.412,4.265-229.653,2.08-250.053c-2.131-19.888-0.094-41.709,1.878-48.287
					c2.011-6.703-6.602-43.412-6.698-43.786l1.005-0.259c0.397,1.536,9.691,37.691,7.596,44.67
					c-1.952,6.509-4.865,27.809-2.75,47.55c2.188,20.42,6.375,208.625,1.042,250.078c-3.103,24.122-4.156,61.415-3.228,99.914
					c0.651,27.033,1.325,54.987,0.527,78.779c-1.885,56.175,7.653,120.918,7.719,121.565H787.847z"/>
			</g>
			<path style="fill:#ABDDDA;" d="M955.259,708.375c0,0,25.577,44.034-1.244,55.62c-26.82,11.586-29.716-0.622-29.716-0.622
				L955.259,708.375z"/>
			<path style="fill:#ABDDDA;" d="M740.927,735.5c0,0,4.066,8.296,3.609,15.745c-0.479,7.792-4.128,19.552-4.128,19.552
				s-157.923,33.616-188.611,5.513c-32.951-30.169,28.186-256.849,54.347-279.024c11.274-9.561,35.048-15.396,56.995-18.884
				c12.094-1.931,23.628-3.146,32.214-3.882c8.845-0.768,14.576-1.017,14.576-1.017l-3.561,13.163l-13.849,51.181l-16.144,59.694
				c0,0-48.274,99.362-49.831,108.705C624.986,715.589,740.927,735.5,740.927,735.5z"/>
			<path style="fill:#91CECF;" d="M780.475,582.709L717.75,463.091c0,0-23.398,4.744-31.253,12.107c0,0,3.993,35.975,7.107,43.934
				c0,0,12.112-1.384,13.842-0.346c0,0-5.883,8.998-7.614,10.035C699.833,528.821,754.36,554.236,780.475,582.709z"/>
			<g>
				<path style="fill:#2C3A64;" d="M707.901,587.304c-4.287-9.469-42.061-90.144-32.444-110.672l3.694-0.458
					c-7.285,15.551,18.898,85.682,30.27,110.806L707.901,587.304z"/>
			</g>
			<path style="fill:#91CECF;" d="M791.144,657.144c0-2.782,2.254-5.036,5.036-5.036c2.781,0,5.036,2.254,5.036,5.036
				c0,2.78-2.255,5.035-5.036,5.035C793.398,662.18,791.144,659.925,791.144,657.144z"/>
			<path style="fill:#91CECF;" d="M791.144,939.238c0-2.782,2.254-5.036,5.036-5.036c2.781,0,5.036,2.254,5.036,5.036
				c0,2.78-2.255,5.035-5.036,5.035C793.398,944.273,791.144,942.019,791.144,939.238z"/>
			<path style="fill:#91CECF;" d="M793.686,810.317c0-2.781,2.254-5.035,5.035-5.035c2.782,0,5.036,2.254,5.036,5.035
				c0,2.782-2.254,5.037-5.036,5.037C795.941,815.354,793.686,813.099,793.686,810.317z"/>
			<path style="fill:#91CECF;" d="M793.686,1061.808c0-2.781,2.254-5.035,5.035-5.035c2.782,0,5.036,2.254,5.036,5.035
				s-2.254,5.036-5.036,5.036C795.941,1066.844,793.686,1064.589,793.686,1061.808z"/>
			<path style="fill:#E58435;" d="M737.979,501.669c0,0,18.13,8.638,46.342,3.323l-3.846,77.716L737.979,501.669z"/>
			<g>
				<polygon style="fill:#35488B;" points="848.249,593.672 1011.583,608.306 911.92,785.349 758.182,776.521 				"/>
				<path style="fill:#B2CBFD;" d="M863.299,592.856c0,0,0.07-25.023,13.901-23.294c13.831,1.729,18.007,26.869,18.007,26.869
					L863.299,592.856z"/>
				<polygon style="fill:#7A97F3;" points="1010.518,606.073 847.184,591.438 757.116,774.287 758.22,776.558 848.287,593.71 
					1011.621,608.343 				"/>
				<path style="fill:#FFFFFF;" d="M877.2,569.562c0,0,23.08,11.332,14.923,47.639c-8.157,36.307-18.318,56.223-12.396,77.699
					L989.753,705c0,0-11.956-28.549,1.327-57.447c13.283-28.896,3.846-61.92-8.347-64.794L877.2,569.562z"/>
			</g>
			<path style="fill:#F4AC75;" d="M932.149,752.393c0,0-16.726-20.099-13.266-34.633c3.461-14.534,15.919-17.895,23.532-12.754
				c7.613,5.141,18.687,16.907,16.61,25.905C956.949,739.907,940.57,756.573,932.149,752.393z"/>
			<path style="fill:#F4AC75;" d="M732.576,740.432c0,0,28.335-12.458,41.313-8.825c12.977,3.633,30.482,6.229,31.852,10.9
				c1.37,4.673-9.334,21.967-25.265,22.839c-15.93,0.872-43.961,8.306-50.708,0C723.019,757.042,732.576,740.432,732.576,740.432z"
				/>
		</g>
	</g>
	<g>
		<g>
			<g>
				<path style="fill:#88ADE5;" d="M2182.977,1686.245c0-14.347-11.63-25.977-25.977-25.977c-14.346,0-25.976,11.63-25.976,25.977
					s11.63,25.978,25.976,25.978C2171.347,1712.223,2182.977,1700.592,2182.977,1686.245z"/>
				<path style="fill:#6488D3;" d="M2175.036,1686.245c0-9.961-8.075-18.036-18.036-18.036c-9.96,0-18.035,8.075-18.035,18.036
					c0,9.962,8.075,18.036,18.035,18.036C2166.961,1704.281,2175.036,1696.207,2175.036,1686.245z"/>
			</g>
			<g>
				<path style="fill:#88ADE5;" d="M1853.259,1686.245c0-14.347-11.631-25.977-25.978-25.977s-25.977,11.63-25.977,25.977
					s11.63,25.978,25.977,25.978S1853.259,1700.592,1853.259,1686.245z"/>
				
					<ellipse transform="matrix(0.0132 -0.9999 0.9999 0.0132 117.1457 3491.1873)" style="fill:#6488D3;" cx="1827.281" cy="1686.245" rx="18.036" ry="18.035"/>
			</g>
			<g>
				<path style="fill:#9FC1F4;" d="M2045.638,1058.773h29.606c-1.191,0-2.166-0.975-2.166-2.167c0-1.191,0.975-2.166,2.166-2.166
					h21.373c1.192,0,2.166,0.975,2.166,2.166c0,1.192-0.974,2.167-2.166,2.167h-0.145c7.626,0,13.865,6.238,13.865,13.863v73.94
					c0,7.626-6.239,13.864-13.865,13.864h-50.835c-7.624,0-13.863-6.238-13.863-13.864v-73.94
					C2031.774,1065.012,2038.014,1058.773,2045.638,1058.773z"/>
				<path style="fill:#6488D3;" d="M1978.222,1042.12h18.451c-1.09,0-1.981-0.893-1.981-1.983v-1.174
					c0-1.09,0.892-1.981,1.981-1.981h14.182c1.089,0,1.982,0.892,1.982,1.981v1.174c0,1.091-0.894,1.983-1.982,1.983h-2.549
					c6.978,0,12.687,5.708,12.687,12.687v95.227c0,6.977-5.709,12.686-12.687,12.686h-30.084c-6.977,0-12.686-5.709-12.686-12.686
					v-95.227C1965.536,1047.828,1971.245,1042.12,1978.222,1042.12z"/>
			</g>
			<g>
				<g>
					<polygon style="fill:#9FC1F4;" points="1926.88,1095.753 1948.832,1095.753 1952.779,1061.958 1924.474,1061.958 					"/>
					<path style="fill:#AFCDFB;" d="M1924.276,1060.503h28.446c0.256,0,0.467,0.21,0.467,0.468v0.521
						c0,0.258-0.211,0.467-0.467,0.467h-28.446c-0.257,0-0.467-0.209-0.467-0.467v-0.521
						C1923.81,1060.713,1924.02,1060.503,1924.276,1060.503z"/>
				</g>
				<g>
					<polygon style="fill:#9FC1F4;" points="1926.88,1100.38 1948.832,1100.38 1952.779,1066.586 1924.474,1066.586 					"/>
					<path style="fill:#AFCDFB;" d="M1924.276,1065.13h28.446c0.256,0,0.467,0.211,0.467,0.467v0.522
						c0,0.256-0.211,0.467-0.467,0.467h-28.446c-0.257,0-0.467-0.211-0.467-0.467v-0.522
						C1923.81,1065.341,1924.02,1065.13,1924.276,1065.13z"/>
				</g>
				<g>
					<polygon style="fill:#9FC1F4;" points="1926.88,1105.387 1948.832,1105.387 1952.779,1071.592 1924.474,1071.592 					"/>
					<path style="fill:#AFCDFB;" d="M1924.276,1070.137h28.446c0.256,0,0.467,0.209,0.467,0.467v0.522
						c0,0.256-0.211,0.466-0.467,0.466h-28.446c-0.257,0-0.467-0.21-0.467-0.466v-0.522
						C1923.81,1070.346,1924.02,1070.137,1924.276,1070.137z"/>
				</g>
				<g>
					<polygon style="fill:#9FC1F4;" points="1926.88,1111.933 1948.832,1111.933 1952.779,1078.14 1924.474,1078.14 					"/>
					<path style="fill:#AFCDFB;" d="M1924.276,1076.684h28.446c0.256,0,0.467,0.21,0.467,0.467v0.521
						c0,0.257-0.211,0.468-0.467,0.468h-28.446c-0.257,0-0.467-0.211-0.467-0.468v-0.521
						C1923.81,1076.894,1924.02,1076.684,1924.276,1076.684z"/>
				</g>
				<g>
					<polygon style="fill:#9FC1F4;" points="1926.88,1116.747 1948.832,1116.747 1952.779,1082.953 1924.474,1082.953 					"/>
					<path style="fill:#AFCDFB;" d="M1924.276,1081.498h28.446c0.256,0,0.467,0.209,0.467,0.467v0.521
						c0,0.258-0.211,0.468-0.467,0.468h-28.446c-0.257,0-0.467-0.21-0.467-0.468v-0.521
						C1923.81,1081.707,1924.02,1081.498,1924.276,1081.498z"/>
				</g>
			</g>
			<g>
				<g>
					<path style="fill:#B64C41;" d="M2181.146,933.688h1.571c0-0.01-0.002-0.018-0.002-0.028c0-1.668,1.364-3.034,3.032-3.034h2.744
						c1.667,0,3.032,1.366,3.032,3.034c0,0.01-0.002,0.018-0.002,0.028h1.569c3.612,0,6.567,2.955,6.567,6.567v58.318
						c0,3.611-2.955,6.565-6.567,6.565h-11.945c-3.61,0-6.565-2.954-6.565-6.565v-58.318
						C2174.58,936.643,2177.535,933.688,2181.146,933.688z"/>
					<path style="fill:#B64C41;" d="M2150.53,933.688h1.569c0-0.01-0.002-0.018-0.002-0.028c0-1.668,1.365-3.034,3.033-3.034h2.743
						c1.668,0,3.034,1.366,3.034,3.034c0,0.01-0.004,0.018-0.004,0.028h1.571c3.612,0,6.565,2.955,6.565,6.567v58.318
						c0,3.611-2.953,6.565-6.565,6.565h-11.945c-3.611,0-6.567-2.954-6.567-6.565v-58.318
						C2143.963,936.643,2146.919,933.688,2150.53,933.688z"/>
					<path style="fill:#B64C41;" d="M2117.073,933.688h1.569c0-0.01-0.001-0.018-0.001-0.028c0-1.668,1.364-3.034,3.032-3.034h2.743
						c1.669,0,3.032,1.366,3.032,3.034c0,0.01-0.001,0.018-0.001,0.028h1.57c3.612,0,6.567,2.955,6.567,6.567v58.318
						c0,3.611-2.955,6.565-6.567,6.565h-11.945c-3.612,0-6.567-2.954-6.567-6.565v-58.318
						C2110.506,936.643,2113.461,933.688,2117.073,933.688z"/>
					<path style="fill:#EE9849;" d="M2048.844,894.275h18.451c-1.092,0-1.983-0.892-1.983-1.983v-1.174
						c0-1.09,0.892-1.982,1.983-1.982h14.18c1.091,0,1.982,0.891,1.982,1.982v1.174c0,1.091-0.892,1.983-1.982,1.983h-2.55
						c6.979,0,12.687,5.709,12.687,12.685v95.229c0,6.977-5.707,12.685-12.687,12.685h-30.081c-6.979,0-12.688-5.707-12.688-12.685
						V906.96C2036.156,899.984,2041.865,894.275,2048.844,894.275z"/>
				</g>
				<g>
					<g>
						<polygon style="fill:#9FC1F4;" points="1926.88,947.908 1948.832,947.908 1952.779,914.114 1924.474,914.114 						"/>
						<path style="fill:#AFCDFB;" d="M1924.276,912.659h28.446c0.256,0,0.467,0.21,0.467,0.467v0.521
							c0,0.258-0.211,0.467-0.467,0.467h-28.446c-0.257,0-0.467-0.209-0.467-0.467v-0.521
							C1923.81,912.868,1924.02,912.659,1924.276,912.659z"/>
					</g>
					<g>
						<polygon style="fill:#9FC1F4;" points="1926.88,952.535 1948.832,952.535 1952.779,918.742 1924.474,918.742 						"/>
						<path style="fill:#AFCDFB;" d="M1924.276,917.285h28.446c0.256,0,0.467,0.211,0.467,0.469v0.521
							c0,0.257-0.211,0.467-0.467,0.467h-28.446c-0.257,0-0.467-0.21-0.467-0.467v-0.521
							C1923.81,917.496,1924.02,917.285,1924.276,917.285z"/>
					</g>
					<g>
						<polygon style="fill:#9FC1F4;" points="1926.88,957.542 1948.832,957.542 1952.779,923.747 1924.474,923.747 						"/>
						<path style="fill:#AFCDFB;" d="M1924.276,922.292h28.446c0.256,0,0.467,0.21,0.467,0.467v0.522
							c0,0.256-0.211,0.466-0.467,0.466h-28.446c-0.257,0-0.467-0.209-0.467-0.466v-0.522
							C1923.81,922.502,1924.02,922.292,1924.276,922.292z"/>
					</g>
					<g>
						<polygon style="fill:#9FC1F4;" points="1926.88,964.088 1948.832,964.088 1952.779,930.295 1924.474,930.295 						"/>
						<path style="fill:#AFCDFB;" d="M1924.276,928.839h28.446c0.256,0,0.467,0.209,0.467,0.467v0.521
							c0,0.257-0.211,0.467-0.467,0.467h-28.446c-0.257,0-0.467-0.21-0.467-0.467v-0.521
							C1923.81,929.048,1924.02,928.839,1924.276,928.839z"/>
					</g>
					<g>
						<polygon style="fill:#9FC1F4;" points="1926.88,968.901 1948.832,968.901 1952.779,935.109 1924.474,935.109 						"/>
						<path style="fill:#AFCDFB;" d="M1924.276,933.653h28.446c0.256,0,0.467,0.211,0.467,0.467v0.521
							c0,0.258-0.211,0.469-0.467,0.469h-28.446c-0.257,0-0.467-0.211-0.467-0.469v-0.521
							C1923.81,933.864,1924.02,933.653,1924.276,933.653z"/>
					</g>
				</g>
				<g>
					<g>
						<polygon style="fill:#9FC1F4;" points="1966.955,947.908 1988.907,947.908 1992.854,914.114 1964.549,914.114 						"/>
						<path style="fill:#AFCDFB;" d="M1964.35,912.659h28.447c0.258,0,0.467,0.21,0.467,0.467v0.521
							c0,0.258-0.209,0.467-0.467,0.467h-28.447c-0.256,0-0.466-0.209-0.466-0.467v-0.521
							C1963.884,912.868,1964.094,912.659,1964.35,912.659z"/>
					</g>
					<g>
						<polygon style="fill:#9FC1F4;" points="1966.955,952.535 1988.907,952.535 1992.854,918.742 1964.549,918.742 						"/>
						<path style="fill:#AFCDFB;" d="M1964.35,917.285h28.447c0.258,0,0.467,0.211,0.467,0.469v0.521
							c0,0.257-0.209,0.467-0.467,0.467h-28.447c-0.256,0-0.466-0.21-0.466-0.467v-0.521
							C1963.884,917.496,1964.094,917.285,1964.35,917.285z"/>
					</g>
					<g>
						<polygon style="fill:#9FC1F4;" points="1966.955,957.542 1988.907,957.542 1992.854,923.747 1964.549,923.747 						"/>
						<path style="fill:#AFCDFB;" d="M1964.35,922.292h28.447c0.258,0,0.467,0.21,0.467,0.467v0.522
							c0,0.256-0.209,0.466-0.467,0.466h-28.447c-0.256,0-0.466-0.209-0.466-0.466v-0.522
							C1963.884,922.502,1964.094,922.292,1964.35,922.292z"/>
					</g>
					<g>
						<polygon style="fill:#9FC1F4;" points="1966.955,964.088 1988.907,964.088 1992.854,930.295 1964.549,930.295 						"/>
						<path style="fill:#AFCDFB;" d="M1964.35,928.839h28.447c0.258,0,0.467,0.209,0.467,0.467v0.521
							c0,0.257-0.209,0.467-0.467,0.467h-28.447c-0.256,0-0.466-0.21-0.466-0.467v-0.521
							C1963.884,929.048,1964.094,928.839,1964.35,928.839z"/>
					</g>
					<g>
						<polygon style="fill:#9FC1F4;" points="1992.854,935.109 1988.907,968.901 1966.955,968.901 1964.547,935.109 						"/>
						<path style="fill:#AFCDFB;" d="M1964.35,933.653h28.447c0.258,0,0.467,0.211,0.467,0.467v0.521
							c0,0.258-0.209,0.469-0.467,0.469h-28.447c-0.256,0-0.466-0.211-0.466-0.469v-0.521
							C1963.884,933.864,1964.094,933.653,1964.35,933.653z"/>
					</g>
				</g>
				<g>
					<g>
						<polygon style="fill:#9FC1F4;" points="1885.56,947.908 1907.512,947.908 1911.459,914.114 1883.153,914.114 						"/>
						<path style="fill:#AFCDFB;" d="M1882.956,912.659h28.446c0.258,0,0.466,0.21,0.466,0.467v0.521
							c0,0.258-0.208,0.467-0.466,0.467h-28.446c-0.257,0-0.468-0.209-0.468-0.467v-0.521
							C1882.488,912.868,1882.699,912.659,1882.956,912.659z"/>
					</g>
					<g>
						<polygon style="fill:#9FC1F4;" points="1885.56,952.535 1907.512,952.535 1911.459,918.742 1883.153,918.742 						"/>
						<path style="fill:#AFCDFB;" d="M1882.956,917.285h28.446c0.258,0,0.466,0.211,0.466,0.469v0.521
							c0,0.257-0.208,0.467-0.466,0.467h-28.446c-0.257,0-0.468-0.21-0.468-0.467v-0.521
							C1882.488,917.496,1882.699,917.285,1882.956,917.285z"/>
					</g>
					<g>
						<polygon style="fill:#9FC1F4;" points="1885.56,957.542 1907.512,957.542 1911.459,923.747 1883.153,923.747 						"/>
						<path style="fill:#AFCDFB;" d="M1882.956,922.292h28.446c0.258,0,0.466,0.21,0.466,0.467v0.522
							c0,0.256-0.208,0.466-0.466,0.466h-28.446c-0.257,0-0.468-0.209-0.468-0.466v-0.522
							C1882.488,922.502,1882.699,922.292,1882.956,922.292z"/>
					</g>
					<g>
						<polygon style="fill:#9FC1F4;" points="1885.56,964.088 1907.512,964.088 1911.459,930.295 1883.153,930.295 						"/>
						<path style="fill:#AFCDFB;" d="M1882.956,928.839h28.446c0.258,0,0.466,0.209,0.466,0.467v0.521
							c0,0.257-0.208,0.467-0.466,0.467h-28.446c-0.257,0-0.468-0.21-0.468-0.467v-0.521
							C1882.488,929.048,1882.699,928.839,1882.956,928.839z"/>
					</g>
					<g>
						<polygon style="fill:#9FC1F4;" points="1885.56,968.901 1907.512,968.901 1911.459,935.109 1883.153,935.109 						"/>
						<path style="fill:#AFCDFB;" d="M1882.956,933.653h28.446c0.258,0,0.466,0.211,0.466,0.467v0.521
							c0,0.258-0.208,0.469-0.466,0.469h-28.446c-0.257,0-0.468-0.211-0.468-0.469v-0.521
							C1882.488,933.864,1882.699,933.653,1882.956,933.653z"/>
					</g>
				</g>
			</g>
			<g>
				<g>
					<polygon style="fill:#9FC1F4;" points="1891.08,1095.753 1913.031,1095.753 1916.979,1061.958 1888.674,1061.958 					"/>
					<path style="fill:#AFCDFB;" d="M1888.478,1060.503h28.444c0.258,0,0.468,0.21,0.468,0.468v0.521
						c0,0.258-0.21,0.467-0.468,0.467h-28.444c-0.259,0-0.468-0.209-0.468-0.467v-0.521
						C1888.01,1060.713,1888.219,1060.503,1888.478,1060.503z"/>
				</g>
				<g>
					<polygon style="fill:#9FC1F4;" points="1891.08,1100.38 1913.031,1100.38 1916.979,1066.586 1888.674,1066.586 					"/>
					<path style="fill:#AFCDFB;" d="M1888.478,1065.13h28.444c0.258,0,0.468,0.211,0.468,0.467v0.522
						c0,0.256-0.21,0.467-0.468,0.467h-28.444c-0.259,0-0.468-0.211-0.468-0.467v-0.522
						C1888.01,1065.341,1888.219,1065.13,1888.478,1065.13z"/>
				</g>
				<g>
					<polygon style="fill:#9FC1F4;" points="1891.08,1105.387 1913.031,1105.387 1916.979,1071.592 1888.674,1071.592 					"/>
					<path style="fill:#AFCDFB;" d="M1888.478,1070.137h28.444c0.258,0,0.468,0.209,0.468,0.467v0.522
						c0,0.256-0.21,0.466-0.468,0.466h-28.444c-0.259,0-0.468-0.21-0.468-0.466v-0.522
						C1888.01,1070.346,1888.219,1070.137,1888.478,1070.137z"/>
				</g>
				<g>
					<polygon style="fill:#9FC1F4;" points="1891.08,1111.933 1913.031,1111.933 1916.979,1078.14 1888.674,1078.14 					"/>
					<path style="fill:#AFCDFB;" d="M1888.478,1076.684h28.444c0.258,0,0.468,0.21,0.468,0.467v0.521
						c0,0.257-0.21,0.468-0.468,0.468h-28.444c-0.259,0-0.468-0.211-0.468-0.468v-0.521
						C1888.01,1076.894,1888.219,1076.684,1888.478,1076.684z"/>
				</g>
				<g>
					<polygon style="fill:#9FC1F4;" points="1891.08,1116.747 1913.031,1116.747 1916.979,1082.953 1888.674,1082.953 					"/>
					<path style="fill:#AFCDFB;" d="M1888.478,1081.498h28.444c0.258,0,0.468,0.209,0.468,0.467v0.521
						c0,0.258-0.21,0.468-0.468,0.468h-28.444c-0.259,0-0.468-0.21-0.468-0.468v-0.521
						C1888.01,1081.707,1888.219,1081.498,1888.478,1081.498z"/>
				</g>
			</g>
			<g>
				<path style="fill:#6488D3;" d="M1796.087,1010.249L1796.087,1010.249c4.66,0,8.472,3.813,8.472,8.473v82.656
					c0,4.659-3.812-1.527-8.472-1.527l0,0c-4.66,0-8.472,6.187-8.472,1.527v-82.656
					C1787.615,1014.063,1791.427,1010.249,1796.087,1010.249z"/>
				<path style="fill:#6488D3;" d="M1851.57,1010.271c4.491,0.315,7.868,4.263,7.868,8.765v86.288
					c-7.354,8.707-16.945,3.445-16.945-3.945v-82.656C1842.493,1013.862,1846.64,1009.923,1851.57,1010.271z"/>
				<path style="fill:#6488D3;" d="M2131.519,1010.249c4.661,0,8.472,3.813,8.472,8.473v82.656c0,4.659-3.811-1.527-8.472-1.527
					s-8.472,6.187-8.472,1.527v-82.656C2123.047,1014.063,2126.857,1010.249,2131.519,1010.249z"/>
				<path style="fill:#6488D3;" d="M2186.397,1010.249L2186.397,1010.249c4.657,0,8.471,3.813,8.471,12.473v72.656
					c0,0.659-3.813,4.473-8.471,4.473l0,0c-4.661,0-8.475,0.187-8.475-4.473v-76.656
					C2177.923,1014.063,2181.736,1010.249,2186.397,1010.249z"/>
			</g>
			<path style="fill:#6488D3;" d="M1771.656,955.368h353.871c3.084,0,5.605,2.523,5.605,5.606v58.655
				c0,3.082-2.521,5.606-5.605,5.606h-353.871c-3.084,0-5.607-2.524-5.607-5.606v-58.655
				C1766.049,957.891,1768.572,955.368,1771.656,955.368z"/>
			<path style="fill:#9FC1F4;" d="M1871.184,955.368h353.871c3.083,0,5.607,2.523,5.607,5.606v58.655
				c0,3.082-2.524,5.606-5.607,5.606h-353.871c-3.084,0-5.606-2.524-5.606-5.606v-58.655
				C1865.577,957.891,1868.1,955.368,1871.184,955.368z"/>
			<path style="fill:#6488D3;" d="M1780.486,1094.395h336.209c7.941,0,14.438,6.497,14.438,14.438v544.469
				c0,7.939-6.496,14.437-14.438,14.437h-336.209c-7.94,0-14.438-6.497-14.438-14.437v-544.469
				C1766.049,1100.892,1772.546,1094.395,1780.486,1094.395z"/>
			<path style="fill:#9FC1F4;" d="M1880.014,1094.395h336.21c7.941,0,14.438,6.497,14.438,14.438v544.469
				c0,7.939-6.497,14.437-14.438,14.437h-336.21c-7.94,0-14.437-6.497-14.437-14.437v-544.469
				C1865.577,1100.892,1872.073,1094.395,1880.014,1094.395z"/>
			<path style="fill:#6488D3;" d="M2197.65,1650.566h-299.064c-8.46,0-15.342-6.882-15.342-15.342v-508.315
				c0-8.46,6.882-15.343,15.342-15.343h299.064c8.461,0,15.344,6.883,15.344,15.343v508.315
				C2212.994,1643.685,2206.111,1650.566,2197.65,1650.566z M1898.586,1116.566c-5.701,0-10.342,4.64-10.342,10.343v508.315
				c0,5.702,4.641,10.342,10.342,10.342h299.064c5.703,0,10.344-4.64,10.344-10.342v-508.315c0-5.703-4.641-10.343-10.344-10.343
				H1898.586z"/>
			<circle style="fill:#6488D3;" cx="1907.958" cy="1366.812" r="9.021"/>
		</g>
		<g>
			<path style="fill:#163560;" d="M2657.646,1652.638c0,0-3.479,56.085-14.328,56.889c-1.444,0.107-55.033,0.107-55.033,0.107
				h-68.18c0,0,0.217-16.88,20.213-20.365c19.997-3.484,53.468-17.537,65.58-43.968
				C2618.643,1617.496,2657.646,1652.638,2657.646,1652.638z"/>
			<path style="fill:#F1A34F;" d="M2661.59,1657.846c0,0-20.797,6.958-37.033,6.958c-18.111,0-34.573-4.936-34.573-4.936
				s-3.915-37.862-25.46-121.289c-11.299-43.727-27.427-99.95-50.379-169.813c-63.455-193.081-82.754-306.035-84.514-316.732
				c-0.094-0.563-0.131-0.845-0.131-0.845l0.207-0.094l195.086-85.655c0,0-24.111,266.11,6.65,368.254
				c4.309,14.276,8,30.911,11.168,48.935C2662.038,1493.578,2661.59,1657.846,2661.59,1657.846z"/>
			<path style="fill:#E58435;" d="M2642.611,1382.629l-78.088,155.95c-11.299-43.727-27.427-99.95-50.379-169.813
				c-63.455-193.081-82.754-306.035-84.514-316.732c0.02-0.319,0.037-0.618,0.076-0.938l195.086-85.655
				c0,0-24.111,266.11,6.65,368.254C2635.752,1347.971,2639.443,1364.605,2642.611,1382.629z"/>
			<path style="fill:#163560;" d="M2509.532,1652.638c0,0-3.478,56.085-14.327,56.889c-1.443,0.107-55.035,0.107-55.035,0.107
				l-68.41-0.396c0,0,0.449-16.483,20.446-19.969c19.994-3.484,53.467-17.537,65.58-43.968
				C2470.53,1617.496,2509.532,1652.638,2509.532,1652.638z"/>
			<path style="fill:#F1A34F;" d="M2394.666,971.712c0,0-2.534,172.442,27.302,384.171c29.836,211.73,19.723,301.604,19.723,301.604
				s20.497,6.641,28.771,7.316c21.078,1.716,42.688-4.94,42.688-4.94s42.704-211.808,30.46-317.783
				c-12.243-105.977,58.477-363.647,58.477-363.647L2394.666,971.712z"/>
			<path style="fill:#FFB27D;" d="M2532.998,568.174l-38.073,24.963l-55.022-10.256c0.76-4.441,4.394-22.852,7.7-39.527
				c0.201-0.984,0.4-1.967,0.587-2.926c2.835-14.19,5.281-26.377,5.281-26.377l51.391-22.676l19.163-8.455
				c-0.052,0.3-1.487,15.748-1.687,18.002C2518.744,540.968,2532.998,568.174,2532.998,568.174z"/>
			<path style="fill:#ABDDDA;" d="M2383.294,979.174c0.783,91.016,6.849,303.947,11.317,308.278
				c47.406,45.761,255.928-12.548,266.984-62.963c11.041-50.414-42.015-646.421-122.988-670.224
				c-16.801-4.931-106.635,24.107-106.635,24.107s-14.081,36.858-23.326,83.817c-3.425,17.397-14.604,141.538-21.131,224.492
				c-1.719,22.115-3.132,41.295-3.961,54.746C2383.218,946.987,2383.141,960.53,2383.294,979.174z"/>
			<path style="fill:#FCA56B;" d="M2518.48,501.629c-11.283,19.118-53.338,35.648-70.878,41.725c0.201-0.984,0.4-1.967,0.587-2.926
				c2.835-14.19,5.281-26.377,5.281-26.377l51.391-22.676C2516.222,491.22,2523.137,493.761,2518.48,501.629z"/>
			<path style="fill:#FFB27D;" d="M2434.1,510.923c0,0,82.781,25.824,98.07-25.975c15.288-51.801,36.269-83.354-15.939-102.032
				c-52.208-18.677-68.356-1.956-77.665,14.093C2429.257,413.058,2412.959,502.871,2434.1,510.923z"/>
			<path style="fill:#163560;" d="M2441.816,392.019c0,0,5.278,60.278,17.744,57.661c12.467-2.617,23.772-4.557,21.946,13.614
				c-1.825,18.171-19.11,39.152,19.306,42.367c38.418,3.214,93.648-95.864,83.094-114.623
				C2553.454,336.911,2397.802,325.989,2441.816,392.019z"/>
			<path style="fill:#91CECF;" d="M2453.994,555.578c1.069-0.45,61.626-27.614,68.709-25.275c7.081,2.338,15.91,23.966,15.91,23.966
				l-106.635,24.109C2431.979,578.378,2440.371,561.313,2453.994,555.578z"/>
			<path style="fill:#91CECF;" d="M2383.294,979.174c197.851-133.984,181.727-318.259,181.727-318.259
				c-77.196,43.55-153.718,146.637-177.505,225.767c-1.719,22.115-3.132,41.295-3.961,54.746
				C2383.218,946.987,2383.141,960.53,2383.294,979.174z"/>
			<g>
				<path style="fill:#FFB27D;" d="M2254.019,965.771c0,0-1.912-1.764-6.417-2.464c-3.822-1.598-14.369-7.196-16.117-9.029
					c-5.526-5.802-8.016-0.238-4.302,5.765c0.804,1.301,3.854,3.639,4.884,4.899c-9.102,2.701-21.434,8.74-37.771,21.1
					c0,0-13.021,9.016,3.431,12.39c10.996,2.255,15.487-1.574,31.038,1.358c15.551,2.931,31.171-1.575,37.489-11.398l10.914-7.419
					l-7.283-21.356L2254.019,965.771z"/>
				<path style="fill:#ABDDDA;" d="M2490.535,580.3c0,0,171.033,4.255-4.026,279.756
					c-27.996,44.063-211.407,130.856-211.407,130.856s-15.246-19.137-7.898-33.659c0,0,124.227-122.158,139.982-126.348
					c13.98-3.717,22.766-162.854,37.76-200.292C2459.938,593.173,2490.535,580.3,2490.535,580.3z"/>
			</g>
		</g>
	</g>
	<g>
		
			<rect x="1526.923" y="381.205" transform="matrix(-1 -1.224647e-16 1.224647e-16 -1 3600.6455 1148.0396)" style="fill:#B2CBFD;" width="546.8" height="385.63"/>
		
			<rect x="1545.854" y="401.248" transform="matrix(-1 -1.224647e-16 1.224647e-16 -1 3600.6445 1148.04)" style="fill:#FFFFFF;" width="508.935" height="345.544"/>
		
			<rect x="2073.558" y="381.205" transform="matrix(-1 -1.224647e-16 1.224647e-16 -1 4150.7344 1148.0396)" style="fill:#466AA5;" width="3.619" height="385.63"/>
		<g>
			<path style="fill:#D3A688;" d="M1994.046,653.098c-4.332,14.01-10.002,26.563-17.22,36.504
				c-39.691,54.651-49.118-2.249-58.637-28.977c-8.955-25.156-20.781-36.203-42.834-25.54c-16.222,7.84-32.084,77.609-56.137,77.186
				c-19.48-0.344-79.981-77.2-41.133-214.133c0.749-2.638,1.818-5.521,3.325-8.405c7.152-13.686,24.112-27.379,63.001-14.918
				c35.579,11.4,37.023,18.559,61.323,11.857c24.3-6.702,60.58-33.591,85.093-6.141
				C2005.969,497.485,2013.533,590.058,1994.046,653.098z"/>
			<path style="fill:#F9DFCD;" d="M1994.047,653.097c-3.534,8.785-7.717,16.723-12.611,23.46
				c-39.692,54.653-49.116-2.249-58.636-28.975c-8.955-25.156-20.78-36.203-42.836-25.54c-16.22,7.84-32.083,77.609-56.135,77.186
				c-18.986-0.335-76.933-73.344-43.904-203.809c0.476-1.884,0.972-3.779,1.486-5.687c7.151-13.684,24.112-27.379,63-14.918
				c35.581,11.4,37.024,18.559,61.324,11.858c24.301-6.704,60.581-33.591,85.092-6.141c10.279,11.509,17.067,57.867,14.268,106.173
				C2003.772,609.56,2000.305,632.852,1994.047,653.097z"/>
			<path style="fill:#FFEADC;" d="M1986.389,500.125c5.122,13.992-0.659,40.434-9.847,40.406
				c-9.187-0.028-13.229-24.602-21.768-35.337c-12.342-15.517-0.608-23.397,8.579-23.369
				C1972.539,481.853,1981.673,487.244,1986.389,500.125z"/>
			<path style="fill:#F4D7C3;" d="M1995.515,648.097c-0.468,1.686-0.959,3.354-1.468,4.999c-3.533,8.786-7.717,16.724-12.611,23.462
				c-29.898,41.165-42.621,19.039-51.146-5.811c-0.003,0-0.002-0.003-0.002-0.003c-2.794-8.138-5.136-16.569-7.486-23.164
				c-5.045-14.164-10.999-23.856-19.175-27.717l-0.002-0.001c-4.321-2.041-9.267-2.452-15.027-1.034
				c-2.693,0.664-5.564,1.727-8.634,3.211c-10.324,4.992-20.505,35.078-32.749,56.176c-6.985,12.047-14.646,21.163-23.385,21.009
				c-15.652-0.274-57.782-49.94-53.59-140.469l-0.002-0.003c0.47-10.16,1.522-20.832,3.264-32.01
				c1.337-8.6,3.083-17.501,5.282-26.692c0.366-1.535,0.748-3.081,1.141-4.632c2.444,4.283,5.247,8.868,8.43,13.631
				c20.526,30.736,56.899,68.874,115.886,81.232c9.401,1.969,19.379,3.285,29.96,3.811c21.152,1.051,44.711-1.056,70.896-7.39
				c-0.469,8.1-1.207,16.254-2.244,24.309l-0.001,0.002C2001.2,623.84,1998.793,636.409,1995.515,648.097z"/>
			<path style="fill:#EECCB3;" d="M1903.624,619.864c-4.321-2.041-9.267-2.452-15.027-1.034c-2.693,0.664-5.564,1.727-8.634,3.211
				c-10.324,4.992-20.505,35.078-32.749,56.176c-6.985,12.047-14.646,21.163-23.385,21.009
				c-15.652-0.274-57.782-49.94-53.59-140.469c6.833,20.699,20.459,96.376,64.376,88.783
				C1863.748,642.505,1865.809,611.403,1903.624,619.864z"/>
			<path style="fill:#EECCB3;" d="M1995.515,648.097c-0.468,1.686-0.959,3.354-1.468,4.999c-3.533,8.786-7.902,16.592-12.611,23.462
				c-41.156,60.045-52.046-9.227-60.571-34.076c0.228,0.55,15.604,39.091,39.985,30.597c20.352-7.09,36.563-29.948,42.001-62.063
				C2001.2,623.84,1998.793,636.409,1995.515,648.097z"/>
			<g>
				<path style="fill:#D3A688;" d="M1787.915,530.034c0.213-1.343,1.474-2.259,2.817-2.046c1.342,0.213,2.259,1.474,2.046,2.817
					c-0.214,1.343-1.475,2.258-2.817,2.045C1788.618,532.638,1787.702,531.377,1787.915,530.034z"/>
				<path style="fill:#D3A688;" d="M1796.383,518.796c0.106-0.671,0.737-1.129,1.409-1.023c0.671,0.107,1.129,0.737,1.022,1.408
					c-0.106,0.671-0.737,1.129-1.408,1.023C1796.734,520.098,1796.276,519.467,1796.383,518.796z"/>
				<path style="fill:#D3A688;" d="M1803.307,534.968c0.106-0.671,0.736-1.129,1.408-1.022c0.672,0.107,1.129,0.737,1.023,1.408
					c-0.107,0.672-0.737,1.13-1.409,1.023C1803.657,536.271,1803.199,535.64,1803.307,534.968z"/>
			</g>
			<path style="fill:#B84C42;" d="M1985.338,590.79c0,10.735-8.703,19.438-19.438,19.438s-19.438-8.703-19.438-19.438
				c0-10.735,8.702-19.439,19.438-19.439S1985.338,580.054,1985.338,590.79z"/>
			<path style="fill:#B84C42;" d="M1965.899,626.38c-19.625,0-35.591-15.966-35.591-35.591c0-19.625,15.966-35.591,35.591-35.591
				s35.591,15.966,35.591,35.591C2001.49,610.414,1985.524,626.38,1965.899,626.38z M1965.899,560.674
				c-16.605,0-30.115,13.51-30.115,30.116c0,16.605,13.51,30.115,30.115,30.115c16.606,0,30.116-13.51,30.116-30.115
				C1996.016,574.184,1982.506,560.674,1965.899,560.674z"/>
		</g>
		<path style="fill:#B2CBFD;" d="M2030.479,433.091h-456.5c-4.832,0-8.75-3.918-8.75-8.75l0,0c0-4.833,3.918-8.75,8.75-8.75h456.5
			c4.833,0,8.75,3.917,8.75,8.75l0,0C2039.229,429.174,2035.312,433.091,2030.479,433.091z"/>
		<path style="fill:#B2CBFD;" d="M1717.979,568.079h-125.906c-4.832,0-8.75-3.917-8.75-8.75l0,0c0-4.833,3.918-8.75,8.75-8.75
			h125.906c4.833,0,8.75,3.917,8.75,8.75l0,0C1726.729,564.162,1722.812,568.079,1717.979,568.079z"/>
		<path style="fill:#B2CBFD;" d="M1717.979,598.079h-125.906c-4.832,0-8.75-3.917-8.75-8.75l0,0c0-4.833,3.918-8.75,8.75-8.75
			h125.906c4.833,0,8.75,3.917,8.75,8.75l0,0C1726.729,594.162,1722.812,598.079,1717.979,598.079z"/>
		<path style="fill:#B2CBFD;" d="M1717.979,628.079h-125.906c-4.832,0-8.75-3.917-8.75-8.75l0,0c0-4.833,3.918-8.75,8.75-8.75
			h125.906c4.833,0,8.75,3.917,8.75,8.75l0,0C1726.729,624.162,1722.812,628.079,1717.979,628.079z"/>
	</g>
	<polygon style="fill:#91CECF;" points="2391.159,841.872 2412.002,823.361 2428.377,722.554 	"/>
	<path style="fill:#2E3552;" d="M243.97,1714.937h2512.059c1.623,0,2.951-1.328,2.951-2.951v-1.241c0-1.623-1.328-2.95-2.95-2.95
		H243.97c-1.623,0-2.95,1.327-2.95,2.95v1.242C241.02,1713.608,242.348,1714.937,243.97,1714.937z"/>
</g>
</svg>
