<svg viewBox="0 0 24 24" xmlns="http://www.w3.org/2000/svg" height="24px" width="24px"><path d="M18 4h-1V3a1 1 0 0 0-2 0v1H9V3a1 1 0 0 0-2 0v1H6a3 3 0 0 0-3 3v11a3 3 0 0 0 3 3h12a3 3 0 0 0 3-3V7a3 3 0 0 0-3-3ZM8 18a1 1 0 1 1 1-1 1 1 0 0 1-1 1Zm0-4a1 1 0 1 1 1-1 1 1 0 0 1-1 1Zm4 4a1 1 0 1 1 1-1 1 1 0 0 1-1 1Zm0-4a1 1 0 1 1 1-1 1 1 0 0 1-1 1Zm4 0a1 1 0 1 1 1-1 1 1 0 0 1-1 1Zm3-4H5V7a1 1 0 0 1 1-1h1v1a1 1 0 0 0 2 0V6h6v1a1 1 0 0 0 2 0V6h1a1 1 0 0 1 1 1Z" fill="#fff" class="fill-464646"></path></svg>
