<?xml version="1.0" ?><svg id="Layer_1" style="enable-background:new 0 0 48 48;" version="1.1" viewBox="0 0 48 48" xml:space="preserve" xmlns="http://www.w3.org/2000/svg" xmlns:xlink="http://www.w3.org/1999/xlink"><g><path d="M47.5,23.6c-1-4.3-4.1-7.5-8-8.8c1.4-1.1,2.3-2.8,2.3-4.8c0-3.4-2.8-6.1-6.1-6.1s-6.1,2.8-6.1,6.1c0,1.9,0.9,3.6,2.3,4.8   c-3.9,1.3-7,4.6-8,8.8l-0.3,1.2h24.3L47.5,23.6z M31.5,10c0-2.3,1.9-4.1,4.1-4.1c2.3,0,4.1,1.9,4.1,4.1s-1.9,4.1-4.1,4.1   C33.3,14.1,31.5,12.3,31.5,10z M26,22.8c1.5-4,5.2-6.7,9.6-6.7c4.3,0,8.1,2.7,9.6,6.7H26z"/><path d="M22.9,46.3c-0.9-4-3.8-7-7.4-8.3c1.3-1.1,2.1-2.7,2.1-4.4c0-3.2-2.6-5.8-5.8-5.8s-5.8,2.6-5.8,5.8c0,1.8,0.8,3.4,2.1,4.4   c-3.7,1.3-6.5,4.3-7.4,8.3l-0.3,1.2h22.9L22.9,46.3z M7.9,33.6c0-2.1,1.7-3.8,3.8-3.8s3.8,1.7,3.8,3.8c0,2.1-1.7,3.8-3.8,3.8   S7.9,35.7,7.9,33.6z M2.8,45.5c1.4-3.7,4.9-6.1,8.9-6.1s7.5,2.5,8.9,6.1H2.8z"/><path d="M47.5,46.3c-0.9-4-3.8-7-7.4-8.3c1.3-1.1,2.1-2.7,2.1-4.4c0-3.2-2.6-5.8-5.8-5.8s-5.8,2.6-5.8,5.8c0,1.8,0.8,3.4,2.1,4.4   c-3.7,1.3-6.5,4.3-7.4,8.3l-0.3,1.2h22.9L47.5,46.3z M32.5,33.6c0-2.1,1.7-3.8,3.8-3.8s3.8,1.7,3.8,3.8c0,2.1-1.7,3.8-3.8,3.8   S32.5,35.7,32.5,33.6z M27.4,45.5c1.4-3.7,4.9-6.1,8.9-6.1s7.5,2.5,8.9,6.1H27.4z"/><polygon points="7.2,17.6 11.7,13.1 16.2,17.6 17.6,16.2 13.1,11.7 17.6,7.2 16.2,5.7 11.7,10.3 7.2,5.7 5.7,7.2 10.3,11.7    5.7,16.2  "/><path d="M11.7,22.8c6.2,0,11.2-5,11.2-11.2s-5-11.2-11.2-11.2S0.5,5.5,0.5,11.7S5.5,22.8,11.7,22.8z M11.7,2.5   c5.1,0,9.2,4.1,9.2,9.2s-4.1,9.2-9.2,9.2s-9.2-4.1-9.2-9.2S6.6,2.5,11.7,2.5z"/></g></svg>