<?xml version="1.0" ?><!DOCTYPE svg  PUBLIC '-//W3C//DTD SVG 1.1//EN'  'http://www.w3.org/Graphics/SVG/1.1/DTD/svg11.dtd'><svg enable-background="new 0 0 64 64" height="24" id="Layer_1" version="1.1" viewBox="0 0 64 64" width="24" xml:space="preserve" xmlns="http://www.w3.org/2000/svg" xmlns:xlink="http://www.w3.org/1999/xlink"><path d="M43,2.235c-2.653,0-5.135,0.71-7.285,1.93c-0.016,0.007-0.029,0.01-0.048,0.02  c-1.99,0.949-3.221-0.321-3.221-0.321S32.44,3.877,32.44,3.878c-2.767-2.402-6.369-3.862-10.323-3.862  c-8.747,0-15.825,7.095-15.825,15.825c0,2.755,0.725,5.334,1.965,7.592h-0.01c0,0,6.954,13.34,7.445,14.7  c0.925,2.579,1.722,4.902,2.001,6.005c0.807,3.125,2.901,17.585,9.32,19.8c0.322,0.054,0.876,0.102,1.11-0.118  c0.426-0.55,0.506-1.618,0.074-3.198v-0.019c0,0-0.857-3.119-0.685-4.923c0.316-4.486,1.865-11.177,2.058-12  c0.386-1.714,3.415-1.03,3.415-1.03l0.003-0.003c1.159,0.564,2.104,0.962,2.712,1.203l0,0c0,0,1.587,0.611,2.199,3.119  c0.047,0.244,0.092,0.499,0.134,0.784c0.029,0.221,0.071,0.422,0.086,0.666c0.019,0.163,0.036,0.339,0.054,0.517  c0.006,0.033,0.006,0.077,0.012,0.107c0.24,2.597,0.262,6.565-0.232,12.642c0,0.003,0,0.003,0,0.006  c-0.118,1.531,0.72,2.021,0.72,2.021c0.312,0.122,0.716,0.244,1.075,0.231c0.698-0.023,1.423-0.166,1.898-0.65  c0.253-0.255,0.521-0.542,0.806-0.893c3.841-4.709,5.442-6.245,6.126-16.578c0.484-7.065,3.135-13.52,5.054-17.675l1.776-3.28  v-0.003c1.455-2.282,2.302-4.993,2.302-7.906C57.708,8.831,51.113,2.235,43,2.235z" fill="#fff"/></svg>
